<?xml version="1.0" encoding="utf-8" standalone="no"?>
<!DOCTYPE svg PUBLIC "-//W3C//DTD SVG 1.1//EN"
  "http://www.w3.org/Graphics/SVG/1.1/DTD/svg11.dtd">
<svg xmlns:xlink="http://www.w3.org/1999/xlink" width="1001.586875pt" height="424.409375pt" viewBox="0 0 1001.586875 424.409375" xmlns="http://www.w3.org/2000/svg" version="1.1">
 <metadata>
  <rdf:RDF xmlns:dc="http://purl.org/dc/elements/1.1/" xmlns:cc="http://creativecommons.org/ns#" xmlns:rdf="http://www.w3.org/1999/02/22-rdf-syntax-ns#">
   <cc:Work>
    <dc:type rdf:resource="http://purl.org/dc/dcmitype/StillImage"/>
    <dc:date>2026-02-01T14:14:34.087687</dc:date>
    <dc:format>image/svg+xml</dc:format>
    <dc:creator>
     <cc:Agent>
      <dc:title>Matplotlib v3.10.1, https://matplotlib.org/</dc:title>
     </cc:Agent>
    </dc:creator>
   </cc:Work>
  </rdf:RDF>
 </metadata>
 <defs>
  <style type="text/css">*{stroke-linejoin: round; stroke-linecap: butt}</style>
 </defs>
 <g id="figure_1">
  <g id="patch_1">
   <path d="M 0 424.409375 
L 1001.586875 424.409375 
L 1001.586875 0 
L 0 0 
z
" style="fill: #ffffff"/>
  </g>
  <g id="axes_1">
   <g id="patch_2">
    <path d="M 45.716875 384.9175 
L 994.386875 384.9175 
L 994.386875 34.3575 
L 45.716875 34.3575 
z
" style="fill: #ffffff"/>
   </g>
   <g id="matplotlib.axis_1">
    <g id="xtick_1">
     <g id="line2d_1">
      <path d="M 88.838239 384.9175 
L 88.838239 34.3575 
" clip-path="url(#p2e0353b717)" style="fill: none; stroke: #b0b0b0; stroke-opacity: 0.3; stroke-width: 0.8; stroke-linecap: square"/>
     </g>
     <g id="line2d_2">
      <defs>
       <path id="mb9d8ecfe37" d="M 0 0 
L 0 3.5 
" style="stroke: #000000; stroke-width: 0.8"/>
      </defs>
      <g>
       <use xlink:href="#mb9d8ecfe37" x="88.838239" y="384.9175" style="stroke: #000000; stroke-width: 0.8"/>
      </g>
     </g>
     <g id="text_1">
      <!-- 0 -->
      <g transform="translate(85.656989 399.515937) scale(0.1 -0.1)">
       <defs>
        <path id="DejaVuSans-30" d="M 2034 4250 
Q 1547 4250 1301 3770 
Q 1056 3291 1056 2328 
Q 1056 1369 1301 889 
Q 1547 409 2034 409 
Q 2525 409 2770 889 
Q 3016 1369 3016 2328 
Q 3016 3291 2770 3770 
Q 2525 4250 2034 4250 
z
M 2034 4750 
Q 2819 4750 3233 4129 
Q 3647 3509 3647 2328 
Q 3647 1150 3233 529 
Q 2819 -91 2034 -91 
Q 1250 -91 836 529 
Q 422 1150 422 2328 
Q 422 3509 836 4129 
Q 1250 4750 2034 4750 
z
" transform="scale(0.015625)"/>
       </defs>
       <use xlink:href="#DejaVuSans-30"/>
      </g>
     </g>
    </g>
    <g id="xtick_2">
     <g id="line2d_3">
      <path d="M 163.831915 384.9175 
L 163.831915 34.3575 
" clip-path="url(#p2e0353b717)" style="fill: none; stroke: #b0b0b0; stroke-opacity: 0.3; stroke-width: 0.8; stroke-linecap: square"/>
     </g>
     <g id="line2d_4">
      <g>
       <use xlink:href="#mb9d8ecfe37" x="163.831915" y="384.9175" style="stroke: #000000; stroke-width: 0.8"/>
      </g>
     </g>
     <g id="text_2">
      <!-- 2 -->
      <g transform="translate(160.650665 399.515937) scale(0.1 -0.1)">
       <defs>
        <path id="DejaVuSans-32" d="M 1228 531 
L 3431 531 
L 3431 0 
L 469 0 
L 469 531 
Q 828 903 1448 1529 
Q 2069 2156 2228 2338 
Q 2531 2678 2651 2914 
Q 2772 3150 2772 3378 
Q 2772 3750 2511 3984 
Q 2250 4219 1831 4219 
Q 1534 4219 1204 4116 
Q 875 4013 500 3803 
L 500 4441 
Q 881 4594 1212 4672 
Q 1544 4750 1819 4750 
Q 2544 4750 2975 4387 
Q 3406 4025 3406 3419 
Q 3406 3131 3298 2873 
Q 3191 2616 2906 2266 
Q 2828 2175 2409 1742 
Q 1991 1309 1228 531 
z
" transform="scale(0.015625)"/>
       </defs>
       <use xlink:href="#DejaVuSans-32"/>
      </g>
     </g>
    </g>
    <g id="xtick_3">
     <g id="line2d_5">
      <path d="M 238.82559 384.9175 
L 238.82559 34.3575 
" clip-path="url(#p2e0353b717)" style="fill: none; stroke: #b0b0b0; stroke-opacity: 0.3; stroke-width: 0.8; stroke-linecap: square"/>
     </g>
     <g id="line2d_6">
      <g>
       <use xlink:href="#mb9d8ecfe37" x="238.82559" y="384.9175" style="stroke: #000000; stroke-width: 0.8"/>
      </g>
     </g>
     <g id="text_3">
      <!-- 4 -->
      <g transform="translate(235.64434 399.515937) scale(0.1 -0.1)">
       <defs>
        <path id="DejaVuSans-34" d="M 2419 4116 
L 825 1625 
L 2419 1625 
L 2419 4116 
z
M 2253 4666 
L 3047 4666 
L 3047 1625 
L 3713 1625 
L 3713 1100 
L 3047 1100 
L 3047 0 
L 2419 0 
L 2419 1100 
L 313 1100 
L 313 1709 
L 2253 4666 
z
" transform="scale(0.015625)"/>
       </defs>
       <use xlink:href="#DejaVuSans-34"/>
      </g>
     </g>
    </g>
    <g id="xtick_4">
     <g id="line2d_7">
      <path d="M 313.819266 384.9175 
L 313.819266 34.3575 
" clip-path="url(#p2e0353b717)" style="fill: none; stroke: #b0b0b0; stroke-opacity: 0.3; stroke-width: 0.8; stroke-linecap: square"/>
     </g>
     <g id="line2d_8">
      <g>
       <use xlink:href="#mb9d8ecfe37" x="313.819266" y="384.9175" style="stroke: #000000; stroke-width: 0.8"/>
      </g>
     </g>
     <g id="text_4">
      <!-- 6 -->
      <g transform="translate(310.638016 399.515937) scale(0.1 -0.1)">
       <defs>
        <path id="DejaVuSans-36" d="M 2113 2584 
Q 1688 2584 1439 2293 
Q 1191 2003 1191 1497 
Q 1191 994 1439 701 
Q 1688 409 2113 409 
Q 2538 409 2786 701 
Q 3034 994 3034 1497 
Q 3034 2003 2786 2293 
Q 2538 2584 2113 2584 
z
M 3366 4563 
L 3366 3988 
Q 3128 4100 2886 4159 
Q 2644 4219 2406 4219 
Q 1781 4219 1451 3797 
Q 1122 3375 1075 2522 
Q 1259 2794 1537 2939 
Q 1816 3084 2150 3084 
Q 2853 3084 3261 2657 
Q 3669 2231 3669 1497 
Q 3669 778 3244 343 
Q 2819 -91 2113 -91 
Q 1303 -91 875 529 
Q 447 1150 447 2328 
Q 447 3434 972 4092 
Q 1497 4750 2381 4750 
Q 2619 4750 2861 4703 
Q 3103 4656 3366 4563 
z
" transform="scale(0.015625)"/>
       </defs>
       <use xlink:href="#DejaVuSans-36"/>
      </g>
     </g>
    </g>
    <g id="xtick_5">
     <g id="line2d_9">
      <path d="M 388.812942 384.9175 
L 388.812942 34.3575 
" clip-path="url(#p2e0353b717)" style="fill: none; stroke: #b0b0b0; stroke-opacity: 0.3; stroke-width: 0.8; stroke-linecap: square"/>
     </g>
     <g id="line2d_10">
      <g>
       <use xlink:href="#mb9d8ecfe37" x="388.812942" y="384.9175" style="stroke: #000000; stroke-width: 0.8"/>
      </g>
     </g>
     <g id="text_5">
      <!-- 8 -->
      <g transform="translate(385.631692 399.515937) scale(0.1 -0.1)">
       <defs>
        <path id="DejaVuSans-38" d="M 2034 2216 
Q 1584 2216 1326 1975 
Q 1069 1734 1069 1313 
Q 1069 891 1326 650 
Q 1584 409 2034 409 
Q 2484 409 2743 651 
Q 3003 894 3003 1313 
Q 3003 1734 2745 1975 
Q 2488 2216 2034 2216 
z
M 1403 2484 
Q 997 2584 770 2862 
Q 544 3141 544 3541 
Q 544 4100 942 4425 
Q 1341 4750 2034 4750 
Q 2731 4750 3128 4425 
Q 3525 4100 3525 3541 
Q 3525 3141 3298 2862 
Q 3072 2584 2669 2484 
Q 3125 2378 3379 2068 
Q 3634 1759 3634 1313 
Q 3634 634 3220 271 
Q 2806 -91 2034 -91 
Q 1263 -91 848 271 
Q 434 634 434 1313 
Q 434 1759 690 2068 
Q 947 2378 1403 2484 
z
M 1172 3481 
Q 1172 3119 1398 2916 
Q 1625 2713 2034 2713 
Q 2441 2713 2670 2916 
Q 2900 3119 2900 3481 
Q 2900 3844 2670 4047 
Q 2441 4250 2034 4250 
Q 1625 4250 1398 4047 
Q 1172 3844 1172 3481 
z
" transform="scale(0.015625)"/>
       </defs>
       <use xlink:href="#DejaVuSans-38"/>
      </g>
     </g>
    </g>
    <g id="xtick_6">
     <g id="line2d_11">
      <path d="M 463.806618 384.9175 
L 463.806618 34.3575 
" clip-path="url(#p2e0353b717)" style="fill: none; stroke: #b0b0b0; stroke-opacity: 0.3; stroke-width: 0.8; stroke-linecap: square"/>
     </g>
     <g id="line2d_12">
      <g>
       <use xlink:href="#mb9d8ecfe37" x="463.806618" y="384.9175" style="stroke: #000000; stroke-width: 0.8"/>
      </g>
     </g>
     <g id="text_6">
      <!-- 10 -->
      <g transform="translate(457.444118 399.515937) scale(0.1 -0.1)">
       <defs>
        <path id="DejaVuSans-31" d="M 794 531 
L 1825 531 
L 1825 4091 
L 703 3866 
L 703 4441 
L 1819 4666 
L 2450 4666 
L 2450 531 
L 3481 531 
L 3481 0 
L 794 0 
L 794 531 
z
" transform="scale(0.015625)"/>
       </defs>
       <use xlink:href="#DejaVuSans-31"/>
       <use xlink:href="#DejaVuSans-30" transform="translate(63.623047 0)"/>
      </g>
     </g>
    </g>
    <g id="xtick_7">
     <g id="line2d_13">
      <path d="M 538.800294 384.9175 
L 538.800294 34.3575 
" clip-path="url(#p2e0353b717)" style="fill: none; stroke: #b0b0b0; stroke-opacity: 0.3; stroke-width: 0.8; stroke-linecap: square"/>
     </g>
     <g id="line2d_14">
      <g>
       <use xlink:href="#mb9d8ecfe37" x="538.800294" y="384.9175" style="stroke: #000000; stroke-width: 0.8"/>
      </g>
     </g>
     <g id="text_7">
      <!-- 12 -->
      <g transform="translate(532.437794 399.515937) scale(0.1 -0.1)">
       <use xlink:href="#DejaVuSans-31"/>
       <use xlink:href="#DejaVuSans-32" transform="translate(63.623047 0)"/>
      </g>
     </g>
    </g>
    <g id="xtick_8">
     <g id="line2d_15">
      <path d="M 613.79397 384.9175 
L 613.79397 34.3575 
" clip-path="url(#p2e0353b717)" style="fill: none; stroke: #b0b0b0; stroke-opacity: 0.3; stroke-width: 0.8; stroke-linecap: square"/>
     </g>
     <g id="line2d_16">
      <g>
       <use xlink:href="#mb9d8ecfe37" x="613.79397" y="384.9175" style="stroke: #000000; stroke-width: 0.8"/>
      </g>
     </g>
     <g id="text_8">
      <!-- 14 -->
      <g transform="translate(607.43147 399.515937) scale(0.1 -0.1)">
       <use xlink:href="#DejaVuSans-31"/>
       <use xlink:href="#DejaVuSans-34" transform="translate(63.623047 0)"/>
      </g>
     </g>
    </g>
    <g id="xtick_9">
     <g id="line2d_17">
      <path d="M 688.787646 384.9175 
L 688.787646 34.3575 
" clip-path="url(#p2e0353b717)" style="fill: none; stroke: #b0b0b0; stroke-opacity: 0.3; stroke-width: 0.8; stroke-linecap: square"/>
     </g>
     <g id="line2d_18">
      <g>
       <use xlink:href="#mb9d8ecfe37" x="688.787646" y="384.9175" style="stroke: #000000; stroke-width: 0.8"/>
      </g>
     </g>
     <g id="text_9">
      <!-- 16 -->
      <g transform="translate(682.425146 399.515937) scale(0.1 -0.1)">
       <use xlink:href="#DejaVuSans-31"/>
       <use xlink:href="#DejaVuSans-36" transform="translate(63.623047 0)"/>
      </g>
     </g>
    </g>
    <g id="xtick_10">
     <g id="line2d_19">
      <path d="M 763.781322 384.9175 
L 763.781322 34.3575 
" clip-path="url(#p2e0353b717)" style="fill: none; stroke: #b0b0b0; stroke-opacity: 0.3; stroke-width: 0.8; stroke-linecap: square"/>
     </g>
     <g id="line2d_20">
      <g>
       <use xlink:href="#mb9d8ecfe37" x="763.781322" y="384.9175" style="stroke: #000000; stroke-width: 0.8"/>
      </g>
     </g>
     <g id="text_10">
      <!-- 18 -->
      <g transform="translate(757.418822 399.515937) scale(0.1 -0.1)">
       <use xlink:href="#DejaVuSans-31"/>
       <use xlink:href="#DejaVuSans-38" transform="translate(63.623047 0)"/>
      </g>
     </g>
    </g>
    <g id="xtick_11">
     <g id="line2d_21">
      <path d="M 838.774998 384.9175 
L 838.774998 34.3575 
" clip-path="url(#p2e0353b717)" style="fill: none; stroke: #b0b0b0; stroke-opacity: 0.3; stroke-width: 0.8; stroke-linecap: square"/>
     </g>
     <g id="line2d_22">
      <g>
       <use xlink:href="#mb9d8ecfe37" x="838.774998" y="384.9175" style="stroke: #000000; stroke-width: 0.8"/>
      </g>
     </g>
     <g id="text_11">
      <!-- 20 -->
      <g transform="translate(832.412498 399.515937) scale(0.1 -0.1)">
       <use xlink:href="#DejaVuSans-32"/>
       <use xlink:href="#DejaVuSans-30" transform="translate(63.623047 0)"/>
      </g>
     </g>
    </g>
    <g id="xtick_12">
     <g id="line2d_23">
      <path d="M 913.768673 384.9175 
L 913.768673 34.3575 
" clip-path="url(#p2e0353b717)" style="fill: none; stroke: #b0b0b0; stroke-opacity: 0.3; stroke-width: 0.8; stroke-linecap: square"/>
     </g>
     <g id="line2d_24">
      <g>
       <use xlink:href="#mb9d8ecfe37" x="913.768673" y="384.9175" style="stroke: #000000; stroke-width: 0.8"/>
      </g>
     </g>
     <g id="text_12">
      <!-- 22 -->
      <g transform="translate(907.406173 399.515937) scale(0.1 -0.1)">
       <use xlink:href="#DejaVuSans-32"/>
       <use xlink:href="#DejaVuSans-32" transform="translate(63.623047 0)"/>
      </g>
     </g>
    </g>
    <g id="text_13">
     <!-- Hour of Day -->
     <g transform="translate(484.154063 414.71375) scale(0.12 -0.12)">
      <defs>
       <path id="DejaVuSans-48" d="M 628 4666 
L 1259 4666 
L 1259 2753 
L 3553 2753 
L 3553 4666 
L 4184 4666 
L 4184 0 
L 3553 0 
L 3553 2222 
L 1259 2222 
L 1259 0 
L 628 0 
L 628 4666 
z
" transform="scale(0.015625)"/>
       <path id="DejaVuSans-6f" d="M 1959 3097 
Q 1497 3097 1228 2736 
Q 959 2375 959 1747 
Q 959 1119 1226 758 
Q 1494 397 1959 397 
Q 2419 397 2687 759 
Q 2956 1122 2956 1747 
Q 2956 2369 2687 2733 
Q 2419 3097 1959 3097 
z
M 1959 3584 
Q 2709 3584 3137 3096 
Q 3566 2609 3566 1747 
Q 3566 888 3137 398 
Q 2709 -91 1959 -91 
Q 1206 -91 779 398 
Q 353 888 353 1747 
Q 353 2609 779 3096 
Q 1206 3584 1959 3584 
z
" transform="scale(0.015625)"/>
       <path id="DejaVuSans-75" d="M 544 1381 
L 544 3500 
L 1119 3500 
L 1119 1403 
Q 1119 906 1312 657 
Q 1506 409 1894 409 
Q 2359 409 2629 706 
Q 2900 1003 2900 1516 
L 2900 3500 
L 3475 3500 
L 3475 0 
L 2900 0 
L 2900 538 
Q 2691 219 2414 64 
Q 2138 -91 1772 -91 
Q 1169 -91 856 284 
Q 544 659 544 1381 
z
M 1991 3584 
L 1991 3584 
z
" transform="scale(0.015625)"/>
       <path id="DejaVuSans-72" d="M 2631 2963 
Q 2534 3019 2420 3045 
Q 2306 3072 2169 3072 
Q 1681 3072 1420 2755 
Q 1159 2438 1159 1844 
L 1159 0 
L 581 0 
L 581 3500 
L 1159 3500 
L 1159 2956 
Q 1341 3275 1631 3429 
Q 1922 3584 2338 3584 
Q 2397 3584 2469 3576 
Q 2541 3569 2628 3553 
L 2631 2963 
z
" transform="scale(0.015625)"/>
       <path id="DejaVuSans-20" transform="scale(0.015625)"/>
       <path id="DejaVuSans-66" d="M 2375 4863 
L 2375 4384 
L 1825 4384 
Q 1516 4384 1395 4259 
Q 1275 4134 1275 3809 
L 1275 3500 
L 2222 3500 
L 2222 3053 
L 1275 3053 
L 1275 0 
L 697 0 
L 697 3053 
L 147 3053 
L 147 3500 
L 697 3500 
L 697 3744 
Q 697 4328 969 4595 
Q 1241 4863 1831 4863 
L 2375 4863 
z
" transform="scale(0.015625)"/>
       <path id="DejaVuSans-44" d="M 1259 4147 
L 1259 519 
L 2022 519 
Q 2988 519 3436 956 
Q 3884 1394 3884 2338 
Q 3884 3275 3436 3711 
Q 2988 4147 2022 4147 
L 1259 4147 
z
M 628 4666 
L 1925 4666 
Q 3281 4666 3915 4102 
Q 4550 3538 4550 2338 
Q 4550 1131 3912 565 
Q 3275 0 1925 0 
L 628 0 
L 628 4666 
z
" transform="scale(0.015625)"/>
       <path id="DejaVuSans-61" d="M 2194 1759 
Q 1497 1759 1228 1600 
Q 959 1441 959 1056 
Q 959 750 1161 570 
Q 1363 391 1709 391 
Q 2188 391 2477 730 
Q 2766 1069 2766 1631 
L 2766 1759 
L 2194 1759 
z
M 3341 1997 
L 3341 0 
L 2766 0 
L 2766 531 
Q 2569 213 2275 61 
Q 1981 -91 1556 -91 
Q 1019 -91 701 211 
Q 384 513 384 1019 
Q 384 1609 779 1909 
Q 1175 2209 1959 2209 
L 2766 2209 
L 2766 2266 
Q 2766 2663 2505 2880 
Q 2244 3097 1772 3097 
Q 1472 3097 1187 3025 
Q 903 2953 641 2809 
L 641 3341 
Q 956 3463 1253 3523 
Q 1550 3584 1831 3584 
Q 2591 3584 2966 3190 
Q 3341 2797 3341 1997 
z
" transform="scale(0.015625)"/>
       <path id="DejaVuSans-79" d="M 2059 -325 
Q 1816 -950 1584 -1140 
Q 1353 -1331 966 -1331 
L 506 -1331 
L 506 -850 
L 844 -850 
Q 1081 -850 1212 -737 
Q 1344 -625 1503 -206 
L 1606 56 
L 191 3500 
L 800 3500 
L 1894 763 
L 2988 3500 
L 3597 3500 
L 2059 -325 
z
" transform="scale(0.015625)"/>
      </defs>
      <use xlink:href="#DejaVuSans-48"/>
      <use xlink:href="#DejaVuSans-6f" transform="translate(75.195312 0)"/>
      <use xlink:href="#DejaVuSans-75" transform="translate(136.376953 0)"/>
      <use xlink:href="#DejaVuSans-72" transform="translate(199.755859 0)"/>
      <use xlink:href="#DejaVuSans-20" transform="translate(240.869141 0)"/>
      <use xlink:href="#DejaVuSans-6f" transform="translate(272.65625 0)"/>
      <use xlink:href="#DejaVuSans-66" transform="translate(333.837891 0)"/>
      <use xlink:href="#DejaVuSans-20" transform="translate(369.042969 0)"/>
      <use xlink:href="#DejaVuSans-44" transform="translate(400.830078 0)"/>
      <use xlink:href="#DejaVuSans-61" transform="translate(477.832031 0)"/>
      <use xlink:href="#DejaVuSans-79" transform="translate(539.111328 0)"/>
     </g>
    </g>
   </g>
   <g id="matplotlib.axis_2">
    <g id="ytick_1">
     <g id="line2d_25">
      <path d="M 45.716875 368.982955 
L 994.386875 368.982955 
" clip-path="url(#p2e0353b717)" style="fill: none; stroke: #b0b0b0; stroke-opacity: 0.3; stroke-width: 0.8; stroke-linecap: square"/>
     </g>
     <g id="line2d_26">
      <defs>
       <path id="m28768e8e92" d="M 0 0 
L -3.5 0 
" style="stroke: #000000; stroke-width: 0.8"/>
      </defs>
      <g>
       <use xlink:href="#m28768e8e92" x="45.716875" y="368.982955" style="stroke: #000000; stroke-width: 0.8"/>
      </g>
     </g>
     <g id="text_14">
      <!-- 0.0 -->
      <g transform="translate(22.81375 372.782173) scale(0.1 -0.1)">
       <defs>
        <path id="DejaVuSans-2e" d="M 684 794 
L 1344 794 
L 1344 0 
L 684 0 
L 684 794 
z
" transform="scale(0.015625)"/>
       </defs>
       <use xlink:href="#DejaVuSans-30"/>
       <use xlink:href="#DejaVuSans-2e" transform="translate(63.623047 0)"/>
       <use xlink:href="#DejaVuSans-30" transform="translate(95.410156 0)"/>
      </g>
     </g>
    </g>
    <g id="ytick_2">
     <g id="line2d_27">
      <path d="M 45.716875 305.244773 
L 994.386875 305.244773 
" clip-path="url(#p2e0353b717)" style="fill: none; stroke: #b0b0b0; stroke-opacity: 0.3; stroke-width: 0.8; stroke-linecap: square"/>
     </g>
     <g id="line2d_28">
      <g>
       <use xlink:href="#m28768e8e92" x="45.716875" y="305.244773" style="stroke: #000000; stroke-width: 0.8"/>
      </g>
     </g>
     <g id="text_15">
      <!-- 0.2 -->
      <g transform="translate(22.81375 309.043991) scale(0.1 -0.1)">
       <use xlink:href="#DejaVuSans-30"/>
       <use xlink:href="#DejaVuSans-2e" transform="translate(63.623047 0)"/>
       <use xlink:href="#DejaVuSans-32" transform="translate(95.410156 0)"/>
      </g>
     </g>
    </g>
    <g id="ytick_3">
     <g id="line2d_29">
      <path d="M 45.716875 241.506591 
L 994.386875 241.506591 
" clip-path="url(#p2e0353b717)" style="fill: none; stroke: #b0b0b0; stroke-opacity: 0.3; stroke-width: 0.8; stroke-linecap: square"/>
     </g>
     <g id="line2d_30">
      <g>
       <use xlink:href="#m28768e8e92" x="45.716875" y="241.506591" style="stroke: #000000; stroke-width: 0.8"/>
      </g>
     </g>
     <g id="text_16">
      <!-- 0.4 -->
      <g transform="translate(22.81375 245.30581) scale(0.1 -0.1)">
       <use xlink:href="#DejaVuSans-30"/>
       <use xlink:href="#DejaVuSans-2e" transform="translate(63.623047 0)"/>
       <use xlink:href="#DejaVuSans-34" transform="translate(95.410156 0)"/>
      </g>
     </g>
    </g>
    <g id="ytick_4">
     <g id="line2d_31">
      <path d="M 45.716875 177.768409 
L 994.386875 177.768409 
" clip-path="url(#p2e0353b717)" style="fill: none; stroke: #b0b0b0; stroke-opacity: 0.3; stroke-width: 0.8; stroke-linecap: square"/>
     </g>
     <g id="line2d_32">
      <g>
       <use xlink:href="#m28768e8e92" x="45.716875" y="177.768409" style="stroke: #000000; stroke-width: 0.8"/>
      </g>
     </g>
     <g id="text_17">
      <!-- 0.6 -->
      <g transform="translate(22.81375 181.567628) scale(0.1 -0.1)">
       <use xlink:href="#DejaVuSans-30"/>
       <use xlink:href="#DejaVuSans-2e" transform="translate(63.623047 0)"/>
       <use xlink:href="#DejaVuSans-36" transform="translate(95.410156 0)"/>
      </g>
     </g>
    </g>
    <g id="ytick_5">
     <g id="line2d_33">
      <path d="M 45.716875 114.030227 
L 994.386875 114.030227 
" clip-path="url(#p2e0353b717)" style="fill: none; stroke: #b0b0b0; stroke-opacity: 0.3; stroke-width: 0.8; stroke-linecap: square"/>
     </g>
     <g id="line2d_34">
      <g>
       <use xlink:href="#m28768e8e92" x="45.716875" y="114.030227" style="stroke: #000000; stroke-width: 0.8"/>
      </g>
     </g>
     <g id="text_18">
      <!-- 0.8 -->
      <g transform="translate(22.81375 117.829446) scale(0.1 -0.1)">
       <use xlink:href="#DejaVuSans-30"/>
       <use xlink:href="#DejaVuSans-2e" transform="translate(63.623047 0)"/>
       <use xlink:href="#DejaVuSans-38" transform="translate(95.410156 0)"/>
      </g>
     </g>
    </g>
    <g id="ytick_6">
     <g id="line2d_35">
      <path d="M 45.716875 50.292045 
L 994.386875 50.292045 
" clip-path="url(#p2e0353b717)" style="fill: none; stroke: #b0b0b0; stroke-opacity: 0.3; stroke-width: 0.8; stroke-linecap: square"/>
     </g>
     <g id="line2d_36">
      <g>
       <use xlink:href="#m28768e8e92" x="45.716875" y="50.292045" style="stroke: #000000; stroke-width: 0.8"/>
      </g>
     </g>
     <g id="text_19">
      <!-- 1.0 -->
      <g transform="translate(22.81375 54.091264) scale(0.1 -0.1)">
       <use xlink:href="#DejaVuSans-31"/>
       <use xlink:href="#DejaVuSans-2e" transform="translate(63.623047 0)"/>
       <use xlink:href="#DejaVuSans-30" transform="translate(95.410156 0)"/>
      </g>
     </g>
    </g>
    <g id="text_20">
     <!-- Normalized Count -->
     <g transform="translate(16.318125 263.389062) rotate(-90) scale(0.12 -0.12)">
      <defs>
       <path id="DejaVuSans-4e" d="M 628 4666 
L 1478 4666 
L 3547 763 
L 3547 4666 
L 4159 4666 
L 4159 0 
L 3309 0 
L 1241 3903 
L 1241 0 
L 628 0 
L 628 4666 
z
" transform="scale(0.015625)"/>
       <path id="DejaVuSans-6d" d="M 3328 2828 
Q 3544 3216 3844 3400 
Q 4144 3584 4550 3584 
Q 5097 3584 5394 3201 
Q 5691 2819 5691 2113 
L 5691 0 
L 5113 0 
L 5113 2094 
Q 5113 2597 4934 2840 
Q 4756 3084 4391 3084 
Q 3944 3084 3684 2787 
Q 3425 2491 3425 1978 
L 3425 0 
L 2847 0 
L 2847 2094 
Q 2847 2600 2669 2842 
Q 2491 3084 2119 3084 
Q 1678 3084 1418 2786 
Q 1159 2488 1159 1978 
L 1159 0 
L 581 0 
L 581 3500 
L 1159 3500 
L 1159 2956 
Q 1356 3278 1631 3431 
Q 1906 3584 2284 3584 
Q 2666 3584 2933 3390 
Q 3200 3197 3328 2828 
z
" transform="scale(0.015625)"/>
       <path id="DejaVuSans-6c" d="M 603 4863 
L 1178 4863 
L 1178 0 
L 603 0 
L 603 4863 
z
" transform="scale(0.015625)"/>
       <path id="DejaVuSans-69" d="M 603 3500 
L 1178 3500 
L 1178 0 
L 603 0 
L 603 3500 
z
M 603 4863 
L 1178 4863 
L 1178 4134 
L 603 4134 
L 603 4863 
z
" transform="scale(0.015625)"/>
       <path id="DejaVuSans-7a" d="M 353 3500 
L 3084 3500 
L 3084 2975 
L 922 459 
L 3084 459 
L 3084 0 
L 275 0 
L 275 525 
L 2438 3041 
L 353 3041 
L 353 3500 
z
" transform="scale(0.015625)"/>
       <path id="DejaVuSans-65" d="M 3597 1894 
L 3597 1613 
L 953 1613 
Q 991 1019 1311 708 
Q 1631 397 2203 397 
Q 2534 397 2845 478 
Q 3156 559 3463 722 
L 3463 178 
Q 3153 47 2828 -22 
Q 2503 -91 2169 -91 
Q 1331 -91 842 396 
Q 353 884 353 1716 
Q 353 2575 817 3079 
Q 1281 3584 2069 3584 
Q 2775 3584 3186 3129 
Q 3597 2675 3597 1894 
z
M 3022 2063 
Q 3016 2534 2758 2815 
Q 2500 3097 2075 3097 
Q 1594 3097 1305 2825 
Q 1016 2553 972 2059 
L 3022 2063 
z
" transform="scale(0.015625)"/>
       <path id="DejaVuSans-64" d="M 2906 2969 
L 2906 4863 
L 3481 4863 
L 3481 0 
L 2906 0 
L 2906 525 
Q 2725 213 2448 61 
Q 2172 -91 1784 -91 
Q 1150 -91 751 415 
Q 353 922 353 1747 
Q 353 2572 751 3078 
Q 1150 3584 1784 3584 
Q 2172 3584 2448 3432 
Q 2725 3281 2906 2969 
z
M 947 1747 
Q 947 1113 1208 752 
Q 1469 391 1925 391 
Q 2381 391 2643 752 
Q 2906 1113 2906 1747 
Q 2906 2381 2643 2742 
Q 2381 3103 1925 3103 
Q 1469 3103 1208 2742 
Q 947 2381 947 1747 
z
" transform="scale(0.015625)"/>
       <path id="DejaVuSans-43" d="M 4122 4306 
L 4122 3641 
Q 3803 3938 3442 4084 
Q 3081 4231 2675 4231 
Q 1875 4231 1450 3742 
Q 1025 3253 1025 2328 
Q 1025 1406 1450 917 
Q 1875 428 2675 428 
Q 3081 428 3442 575 
Q 3803 722 4122 1019 
L 4122 359 
Q 3791 134 3420 21 
Q 3050 -91 2638 -91 
Q 1578 -91 968 557 
Q 359 1206 359 2328 
Q 359 3453 968 4101 
Q 1578 4750 2638 4750 
Q 3056 4750 3426 4639 
Q 3797 4528 4122 4306 
z
" transform="scale(0.015625)"/>
       <path id="DejaVuSans-6e" d="M 3513 2113 
L 3513 0 
L 2938 0 
L 2938 2094 
Q 2938 2591 2744 2837 
Q 2550 3084 2163 3084 
Q 1697 3084 1428 2787 
Q 1159 2491 1159 1978 
L 1159 0 
L 581 0 
L 581 3500 
L 1159 3500 
L 1159 2956 
Q 1366 3272 1645 3428 
Q 1925 3584 2291 3584 
Q 2894 3584 3203 3211 
Q 3513 2838 3513 2113 
z
" transform="scale(0.015625)"/>
       <path id="DejaVuSans-74" d="M 1172 4494 
L 1172 3500 
L 2356 3500 
L 2356 3053 
L 1172 3053 
L 1172 1153 
Q 1172 725 1289 603 
Q 1406 481 1766 481 
L 2356 481 
L 2356 0 
L 1766 0 
Q 1100 0 847 248 
Q 594 497 594 1153 
L 594 3053 
L 172 3053 
L 172 3500 
L 594 3500 
L 594 4494 
L 1172 4494 
z
" transform="scale(0.015625)"/>
      </defs>
      <use xlink:href="#DejaVuSans-4e"/>
      <use xlink:href="#DejaVuSans-6f" transform="translate(74.804688 0)"/>
      <use xlink:href="#DejaVuSans-72" transform="translate(135.986328 0)"/>
      <use xlink:href="#DejaVuSans-6d" transform="translate(175.349609 0)"/>
      <use xlink:href="#DejaVuSans-61" transform="translate(272.761719 0)"/>
      <use xlink:href="#DejaVuSans-6c" transform="translate(334.041016 0)"/>
      <use xlink:href="#DejaVuSans-69" transform="translate(361.824219 0)"/>
      <use xlink:href="#DejaVuSans-7a" transform="translate(389.607422 0)"/>
      <use xlink:href="#DejaVuSans-65" transform="translate(442.097656 0)"/>
      <use xlink:href="#DejaVuSans-64" transform="translate(503.621094 0)"/>
      <use xlink:href="#DejaVuSans-20" transform="translate(567.097656 0)"/>
      <use xlink:href="#DejaVuSans-43" transform="translate(598.884766 0)"/>
      <use xlink:href="#DejaVuSans-6f" transform="translate(668.708984 0)"/>
      <use xlink:href="#DejaVuSans-75" transform="translate(729.890625 0)"/>
      <use xlink:href="#DejaVuSans-6e" transform="translate(793.269531 0)"/>
      <use xlink:href="#DejaVuSans-74" transform="translate(856.648438 0)"/>
     </g>
    </g>
   </g>
   <g id="line2d_37">
    <path d="M 88.838239 367.63806 
L 126.335077 368.720536 
L 163.831915 368.277705 
L 201.328752 368.982955 
L 238.82559 368.63853 
L 276.322428 365.866734 
L 313.819266 354.500732 
L 351.316104 332.506778 
L 388.812942 301.196967 
L 426.30978 221.142913 
L 463.806618 121.981509 
L 501.303456 50.292045 
L 538.800294 62.871734 
L 576.297132 102.939764 
L 613.79397 141.974521 
L 651.290808 194.540234 
L 688.787646 248.024411 
L 726.284484 294.931724 
L 763.781322 323.387734 
L 801.27816 336.754678 
L 838.774998 352.384982 
L 876.271835 363.439363 
L 913.768673 367.113222 
L 951.265511 368.06449 
" clip-path="url(#p2e0353b717)" style="fill: none; stroke: #21918c; stroke-width: 2; stroke-linecap: square"/>
    <defs>
     <path id="mad06cac1db" d="M 0 3 
C 0.795609 3 1.55874 2.683901 2.12132 2.12132 
C 2.683901 1.55874 3 0.795609 3 0 
C 3 -0.795609 2.683901 -1.55874 2.12132 -2.12132 
C 1.55874 -2.683901 0.795609 -3 0 -3 
C -0.795609 -3 -1.55874 -2.683901 -2.12132 -2.12132 
C -2.683901 -1.55874 -3 -0.795609 -3 0 
C -3 0.795609 -2.683901 1.55874 -2.12132 2.12132 
C -1.55874 2.683901 -0.795609 3 0 3 
z
" style="stroke: #21918c"/>
    </defs>
    <g clip-path="url(#p2e0353b717)">
     <use xlink:href="#mad06cac1db" x="88.838239" y="367.63806" style="fill: #21918c; stroke: #21918c"/>
     <use xlink:href="#mad06cac1db" x="126.335077" y="368.720536" style="fill: #21918c; stroke: #21918c"/>
     <use xlink:href="#mad06cac1db" x="163.831915" y="368.277705" style="fill: #21918c; stroke: #21918c"/>
     <use xlink:href="#mad06cac1db" x="201.328752" y="368.982955" style="fill: #21918c; stroke: #21918c"/>
     <use xlink:href="#mad06cac1db" x="238.82559" y="368.63853" style="fill: #21918c; stroke: #21918c"/>
     <use xlink:href="#mad06cac1db" x="276.322428" y="365.866734" style="fill: #21918c; stroke: #21918c"/>
     <use xlink:href="#mad06cac1db" x="313.819266" y="354.500732" style="fill: #21918c; stroke: #21918c"/>
     <use xlink:href="#mad06cac1db" x="351.316104" y="332.506778" style="fill: #21918c; stroke: #21918c"/>
     <use xlink:href="#mad06cac1db" x="388.812942" y="301.196967" style="fill: #21918c; stroke: #21918c"/>
     <use xlink:href="#mad06cac1db" x="426.30978" y="221.142913" style="fill: #21918c; stroke: #21918c"/>
     <use xlink:href="#mad06cac1db" x="463.806618" y="121.981509" style="fill: #21918c; stroke: #21918c"/>
     <use xlink:href="#mad06cac1db" x="501.303456" y="50.292045" style="fill: #21918c; stroke: #21918c"/>
     <use xlink:href="#mad06cac1db" x="538.800294" y="62.871734" style="fill: #21918c; stroke: #21918c"/>
     <use xlink:href="#mad06cac1db" x="576.297132" y="102.939764" style="fill: #21918c; stroke: #21918c"/>
     <use xlink:href="#mad06cac1db" x="613.79397" y="141.974521" style="fill: #21918c; stroke: #21918c"/>
     <use xlink:href="#mad06cac1db" x="651.290808" y="194.540234" style="fill: #21918c; stroke: #21918c"/>
     <use xlink:href="#mad06cac1db" x="688.787646" y="248.024411" style="fill: #21918c; stroke: #21918c"/>
     <use xlink:href="#mad06cac1db" x="726.284484" y="294.931724" style="fill: #21918c; stroke: #21918c"/>
     <use xlink:href="#mad06cac1db" x="763.781322" y="323.387734" style="fill: #21918c; stroke: #21918c"/>
     <use xlink:href="#mad06cac1db" x="801.27816" y="336.754678" style="fill: #21918c; stroke: #21918c"/>
     <use xlink:href="#mad06cac1db" x="838.774998" y="352.384982" style="fill: #21918c; stroke: #21918c"/>
     <use xlink:href="#mad06cac1db" x="876.271835" y="363.439363" style="fill: #21918c; stroke: #21918c"/>
     <use xlink:href="#mad06cac1db" x="913.768673" y="367.113222" style="fill: #21918c; stroke: #21918c"/>
     <use xlink:href="#mad06cac1db" x="951.265511" y="368.06449" style="fill: #21918c; stroke: #21918c"/>
    </g>
   </g>
   <g id="line2d_38">
    <path d="M 88.838239 356.889043 
L 126.335077 366.594344 
L 163.831915 365.840046 
L 201.328752 368.153227 
L 238.82559 368.982955 
L 276.322428 360.459387 
L 313.819266 345.826006 
L 351.316104 301.674429 
L 388.812942 283.495847 
L 426.30978 213.044413 
L 463.806618 144.051288 
L 501.303456 109.102147 
L 538.800294 96.857376 
L 576.297132 50.292045 
L 613.79397 73.65014 
L 651.290808 54.666974 
L 688.787646 77.522204 
L 726.284484 77.49706 
L 763.781322 107.140972 
L 801.27816 190.113753 
L 838.774998 263.255517 
L 876.271835 299.612681 
L 913.768673 327.119415 
L 951.265511 335.114974 
" clip-path="url(#p2e0353b717)" style="fill: none; stroke: #5ec962; stroke-width: 2; stroke-linecap: square"/>
    <defs>
     <path id="mab7505fb61" d="M -3 3 
L 3 3 
L 3 -3 
L -3 -3 
z
" style="stroke: #5ec962; stroke-linejoin: miter"/>
    </defs>
    <g clip-path="url(#p2e0353b717)">
     <use xlink:href="#mab7505fb61" x="88.838239" y="356.889043" style="fill: #5ec962; stroke: #5ec962; stroke-linejoin: miter"/>
     <use xlink:href="#mab7505fb61" x="126.335077" y="366.594344" style="fill: #5ec962; stroke: #5ec962; stroke-linejoin: miter"/>
     <use xlink:href="#mab7505fb61" x="163.831915" y="365.840046" style="fill: #5ec962; stroke: #5ec962; stroke-linejoin: miter"/>
     <use xlink:href="#mab7505fb61" x="201.328752" y="368.153227" style="fill: #5ec962; stroke: #5ec962; stroke-linejoin: miter"/>
     <use xlink:href="#mab7505fb61" x="238.82559" y="368.982955" style="fill: #5ec962; stroke: #5ec962; stroke-linejoin: miter"/>
     <use xlink:href="#mab7505fb61" x="276.322428" y="360.459387" style="fill: #5ec962; stroke: #5ec962; stroke-linejoin: miter"/>
     <use xlink:href="#mab7505fb61" x="313.819266" y="345.826006" style="fill: #5ec962; stroke: #5ec962; stroke-linejoin: miter"/>
     <use xlink:href="#mab7505fb61" x="351.316104" y="301.674429" style="fill: #5ec962; stroke: #5ec962; stroke-linejoin: miter"/>
     <use xlink:href="#mab7505fb61" x="388.812942" y="283.495847" style="fill: #5ec962; stroke: #5ec962; stroke-linejoin: miter"/>
     <use xlink:href="#mab7505fb61" x="426.30978" y="213.044413" style="fill: #5ec962; stroke: #5ec962; stroke-linejoin: miter"/>
     <use xlink:href="#mab7505fb61" x="463.806618" y="144.051288" style="fill: #5ec962; stroke: #5ec962; stroke-linejoin: miter"/>
     <use xlink:href="#mab7505fb61" x="501.303456" y="109.102147" style="fill: #5ec962; stroke: #5ec962; stroke-linejoin: miter"/>
     <use xlink:href="#mab7505fb61" x="538.800294" y="96.857376" style="fill: #5ec962; stroke: #5ec962; stroke-linejoin: miter"/>
     <use xlink:href="#mab7505fb61" x="576.297132" y="50.292045" style="fill: #5ec962; stroke: #5ec962; stroke-linejoin: miter"/>
     <use xlink:href="#mab7505fb61" x="613.79397" y="73.65014" style="fill: #5ec962; stroke: #5ec962; stroke-linejoin: miter"/>
     <use xlink:href="#mab7505fb61" x="651.290808" y="54.666974" style="fill: #5ec962; stroke: #5ec962; stroke-linejoin: miter"/>
     <use xlink:href="#mab7505fb61" x="688.787646" y="77.522204" style="fill: #5ec962; stroke: #5ec962; stroke-linejoin: miter"/>
     <use xlink:href="#mab7505fb61" x="726.284484" y="77.49706" style="fill: #5ec962; stroke: #5ec962; stroke-linejoin: miter"/>
     <use xlink:href="#mab7505fb61" x="763.781322" y="107.140972" style="fill: #5ec962; stroke: #5ec962; stroke-linejoin: miter"/>
     <use xlink:href="#mab7505fb61" x="801.27816" y="190.113753" style="fill: #5ec962; stroke: #5ec962; stroke-linejoin: miter"/>
     <use xlink:href="#mab7505fb61" x="838.774998" y="263.255517" style="fill: #5ec962; stroke: #5ec962; stroke-linejoin: miter"/>
     <use xlink:href="#mab7505fb61" x="876.271835" y="299.612681" style="fill: #5ec962; stroke: #5ec962; stroke-linejoin: miter"/>
     <use xlink:href="#mab7505fb61" x="913.768673" y="327.119415" style="fill: #5ec962; stroke: #5ec962; stroke-linejoin: miter"/>
     <use xlink:href="#mab7505fb61" x="951.265511" y="335.114974" style="fill: #5ec962; stroke: #5ec962; stroke-linejoin: miter"/>
    </g>
   </g>
   <g id="patch_3">
    <path d="M 45.716875 384.9175 
L 45.716875 34.3575 
" style="fill: none; stroke: #000000; stroke-width: 0.8; stroke-linejoin: miter; stroke-linecap: square"/>
   </g>
   <g id="patch_4">
    <path d="M 994.386875 384.9175 
L 994.386875 34.3575 
" style="fill: none; stroke: #000000; stroke-width: 0.8; stroke-linejoin: miter; stroke-linecap: square"/>
   </g>
   <g id="patch_5">
    <path d="M 45.716875 384.9175 
L 994.386875 384.9175 
" style="fill: none; stroke: #000000; stroke-width: 0.8; stroke-linejoin: miter; stroke-linecap: square"/>
   </g>
   <g id="patch_6">
    <path d="M 45.716875 34.3575 
L 994.386875 34.3575 
" style="fill: none; stroke: #000000; stroke-width: 0.8; stroke-linejoin: miter; stroke-linecap: square"/>
   </g>
   <g id="text_21">
    <!-- Time of Day Distribution: Counter Data vs Match Results -->
    <g transform="translate(293.996875 19.3575) scale(0.16 -0.16)">
     <defs>
      <path id="DejaVuSans-54" d="M -19 4666 
L 3928 4666 
L 3928 4134 
L 2272 4134 
L 2272 0 
L 1638 0 
L 1638 4134 
L -19 4134 
L -19 4666 
z
" transform="scale(0.015625)"/>
      <path id="DejaVuSans-73" d="M 2834 3397 
L 2834 2853 
Q 2591 2978 2328 3040 
Q 2066 3103 1784 3103 
Q 1356 3103 1142 2972 
Q 928 2841 928 2578 
Q 928 2378 1081 2264 
Q 1234 2150 1697 2047 
L 1894 2003 
Q 2506 1872 2764 1633 
Q 3022 1394 3022 966 
Q 3022 478 2636 193 
Q 2250 -91 1575 -91 
Q 1294 -91 989 -36 
Q 684 19 347 128 
L 347 722 
Q 666 556 975 473 
Q 1284 391 1588 391 
Q 1994 391 2212 530 
Q 2431 669 2431 922 
Q 2431 1156 2273 1281 
Q 2116 1406 1581 1522 
L 1381 1569 
Q 847 1681 609 1914 
Q 372 2147 372 2553 
Q 372 3047 722 3315 
Q 1072 3584 1716 3584 
Q 2034 3584 2315 3537 
Q 2597 3491 2834 3397 
z
" transform="scale(0.015625)"/>
      <path id="DejaVuSans-62" d="M 3116 1747 
Q 3116 2381 2855 2742 
Q 2594 3103 2138 3103 
Q 1681 3103 1420 2742 
Q 1159 2381 1159 1747 
Q 1159 1113 1420 752 
Q 1681 391 2138 391 
Q 2594 391 2855 752 
Q 3116 1113 3116 1747 
z
M 1159 2969 
Q 1341 3281 1617 3432 
Q 1894 3584 2278 3584 
Q 2916 3584 3314 3078 
Q 3713 2572 3713 1747 
Q 3713 922 3314 415 
Q 2916 -91 2278 -91 
Q 1894 -91 1617 61 
Q 1341 213 1159 525 
L 1159 0 
L 581 0 
L 581 4863 
L 1159 4863 
L 1159 2969 
z
" transform="scale(0.015625)"/>
      <path id="DejaVuSans-3a" d="M 750 794 
L 1409 794 
L 1409 0 
L 750 0 
L 750 794 
z
M 750 3309 
L 1409 3309 
L 1409 2516 
L 750 2516 
L 750 3309 
z
" transform="scale(0.015625)"/>
      <path id="DejaVuSans-76" d="M 191 3500 
L 800 3500 
L 1894 563 
L 2988 3500 
L 3597 3500 
L 2284 0 
L 1503 0 
L 191 3500 
z
" transform="scale(0.015625)"/>
      <path id="DejaVuSans-4d" d="M 628 4666 
L 1569 4666 
L 2759 1491 
L 3956 4666 
L 4897 4666 
L 4897 0 
L 4281 0 
L 4281 4097 
L 3078 897 
L 2444 897 
L 1241 4097 
L 1241 0 
L 628 0 
L 628 4666 
z
" transform="scale(0.015625)"/>
      <path id="DejaVuSans-63" d="M 3122 3366 
L 3122 2828 
Q 2878 2963 2633 3030 
Q 2388 3097 2138 3097 
Q 1578 3097 1268 2742 
Q 959 2388 959 1747 
Q 959 1106 1268 751 
Q 1578 397 2138 397 
Q 2388 397 2633 464 
Q 2878 531 3122 666 
L 3122 134 
Q 2881 22 2623 -34 
Q 2366 -91 2075 -91 
Q 1284 -91 818 406 
Q 353 903 353 1747 
Q 353 2603 823 3093 
Q 1294 3584 2113 3584 
Q 2378 3584 2631 3529 
Q 2884 3475 3122 3366 
z
" transform="scale(0.015625)"/>
      <path id="DejaVuSans-68" d="M 3513 2113 
L 3513 0 
L 2938 0 
L 2938 2094 
Q 2938 2591 2744 2837 
Q 2550 3084 2163 3084 
Q 1697 3084 1428 2787 
Q 1159 2491 1159 1978 
L 1159 0 
L 581 0 
L 581 4863 
L 1159 4863 
L 1159 2956 
Q 1366 3272 1645 3428 
Q 1925 3584 2291 3584 
Q 2894 3584 3203 3211 
Q 3513 2838 3513 2113 
z
" transform="scale(0.015625)"/>
      <path id="DejaVuSans-52" d="M 2841 2188 
Q 3044 2119 3236 1894 
Q 3428 1669 3622 1275 
L 4263 0 
L 3584 0 
L 2988 1197 
Q 2756 1666 2539 1819 
Q 2322 1972 1947 1972 
L 1259 1972 
L 1259 0 
L 628 0 
L 628 4666 
L 2053 4666 
Q 2853 4666 3247 4331 
Q 3641 3997 3641 3322 
Q 3641 2881 3436 2590 
Q 3231 2300 2841 2188 
z
M 1259 4147 
L 1259 2491 
L 2053 2491 
Q 2509 2491 2742 2702 
Q 2975 2913 2975 3322 
Q 2975 3731 2742 3939 
Q 2509 4147 2053 4147 
L 1259 4147 
z
" transform="scale(0.015625)"/>
     </defs>
     <use xlink:href="#DejaVuSans-54"/>
     <use xlink:href="#DejaVuSans-69" transform="translate(57.958984 0)"/>
     <use xlink:href="#DejaVuSans-6d" transform="translate(85.742188 0)"/>
     <use xlink:href="#DejaVuSans-65" transform="translate(183.154297 0)"/>
     <use xlink:href="#DejaVuSans-20" transform="translate(244.677734 0)"/>
     <use xlink:href="#DejaVuSans-6f" transform="translate(276.464844 0)"/>
     <use xlink:href="#DejaVuSans-66" transform="translate(337.646484 0)"/>
     <use xlink:href="#DejaVuSans-20" transform="translate(372.851562 0)"/>
     <use xlink:href="#DejaVuSans-44" transform="translate(404.638672 0)"/>
     <use xlink:href="#DejaVuSans-61" transform="translate(481.640625 0)"/>
     <use xlink:href="#DejaVuSans-79" transform="translate(542.919922 0)"/>
     <use xlink:href="#DejaVuSans-20" transform="translate(602.099609 0)"/>
     <use xlink:href="#DejaVuSans-44" transform="translate(633.886719 0)"/>
     <use xlink:href="#DejaVuSans-69" transform="translate(710.888672 0)"/>
     <use xlink:href="#DejaVuSans-73" transform="translate(738.671875 0)"/>
     <use xlink:href="#DejaVuSans-74" transform="translate(790.771484 0)"/>
     <use xlink:href="#DejaVuSans-72" transform="translate(829.980469 0)"/>
     <use xlink:href="#DejaVuSans-69" transform="translate(871.09375 0)"/>
     <use xlink:href="#DejaVuSans-62" transform="translate(898.876953 0)"/>
     <use xlink:href="#DejaVuSans-75" transform="translate(962.353516 0)"/>
     <use xlink:href="#DejaVuSans-74" transform="translate(1025.732422 0)"/>
     <use xlink:href="#DejaVuSans-69" transform="translate(1064.941406 0)"/>
     <use xlink:href="#DejaVuSans-6f" transform="translate(1092.724609 0)"/>
     <use xlink:href="#DejaVuSans-6e" transform="translate(1153.90625 0)"/>
     <use xlink:href="#DejaVuSans-3a" transform="translate(1217.285156 0)"/>
     <use xlink:href="#DejaVuSans-20" transform="translate(1250.976562 0)"/>
     <use xlink:href="#DejaVuSans-43" transform="translate(1282.763672 0)"/>
     <use xlink:href="#DejaVuSans-6f" transform="translate(1352.587891 0)"/>
     <use xlink:href="#DejaVuSans-75" transform="translate(1413.769531 0)"/>
     <use xlink:href="#DejaVuSans-6e" transform="translate(1477.148438 0)"/>
     <use xlink:href="#DejaVuSans-74" transform="translate(1540.527344 0)"/>
     <use xlink:href="#DejaVuSans-65" transform="translate(1579.736328 0)"/>
     <use xlink:href="#DejaVuSans-72" transform="translate(1641.259766 0)"/>
     <use xlink:href="#DejaVuSans-20" transform="translate(1682.373047 0)"/>
     <use xlink:href="#DejaVuSans-44" transform="translate(1714.160156 0)"/>
     <use xlink:href="#DejaVuSans-61" transform="translate(1791.162109 0)"/>
     <use xlink:href="#DejaVuSans-74" transform="translate(1852.441406 0)"/>
     <use xlink:href="#DejaVuSans-61" transform="translate(1891.650391 0)"/>
     <use xlink:href="#DejaVuSans-20" transform="translate(1952.929688 0)"/>
     <use xlink:href="#DejaVuSans-76" transform="translate(1984.716797 0)"/>
     <use xlink:href="#DejaVuSans-73" transform="translate(2043.896484 0)"/>
     <use xlink:href="#DejaVuSans-20" transform="translate(2095.996094 0)"/>
     <use xlink:href="#DejaVuSans-4d" transform="translate(2127.783203 0)"/>
     <use xlink:href="#DejaVuSans-61" transform="translate(2214.0625 0)"/>
     <use xlink:href="#DejaVuSans-74" transform="translate(2275.341797 0)"/>
     <use xlink:href="#DejaVuSans-63" transform="translate(2314.550781 0)"/>
     <use xlink:href="#DejaVuSans-68" transform="translate(2369.53125 0)"/>
     <use xlink:href="#DejaVuSans-20" transform="translate(2432.910156 0)"/>
     <use xlink:href="#DejaVuSans-52" transform="translate(2464.697266 0)"/>
     <use xlink:href="#DejaVuSans-65" transform="translate(2529.679688 0)"/>
     <use xlink:href="#DejaVuSans-73" transform="translate(2591.203125 0)"/>
     <use xlink:href="#DejaVuSans-75" transform="translate(2643.302734 0)"/>
     <use xlink:href="#DejaVuSans-6c" transform="translate(2706.681641 0)"/>
     <use xlink:href="#DejaVuSans-74" transform="translate(2734.464844 0)"/>
     <use xlink:href="#DejaVuSans-73" transform="translate(2773.673828 0)"/>
    </g>
   </g>
   <g id="legend_1">
    <g id="patch_7">
     <path d="M 806.53375 71.71375 
L 987.386875 71.71375 
Q 989.386875 71.71375 989.386875 69.71375 
L 989.386875 41.3575 
Q 989.386875 39.3575 987.386875 39.3575 
L 806.53375 39.3575 
Q 804.53375 39.3575 804.53375 41.3575 
L 804.53375 69.71375 
Q 804.53375 71.71375 806.53375 71.71375 
z
" style="fill: #ffffff; opacity: 0.8; stroke: #cccccc; stroke-linejoin: miter"/>
    </g>
    <g id="line2d_39">
     <path d="M 808.53375 47.455937 
L 818.53375 47.455937 
L 828.53375 47.455937 
" style="fill: none; stroke: #21918c; stroke-width: 2; stroke-linecap: square"/>
     <g>
      <use xlink:href="#mad06cac1db" x="818.53375" y="47.455937" style="fill: #21918c; stroke: #21918c"/>
     </g>
    </g>
    <g id="text_22">
     <!-- Counter Data (Total: 129886) -->
     <g transform="translate(836.53375 50.955937) scale(0.1 -0.1)">
      <defs>
       <path id="DejaVuSans-28" d="M 1984 4856 
Q 1566 4138 1362 3434 
Q 1159 2731 1159 2009 
Q 1159 1288 1364 580 
Q 1569 -128 1984 -844 
L 1484 -844 
Q 1016 -109 783 600 
Q 550 1309 550 2009 
Q 550 2706 781 3412 
Q 1013 4119 1484 4856 
L 1984 4856 
z
" transform="scale(0.015625)"/>
       <path id="DejaVuSans-39" d="M 703 97 
L 703 672 
Q 941 559 1184 500 
Q 1428 441 1663 441 
Q 2288 441 2617 861 
Q 2947 1281 2994 2138 
Q 2813 1869 2534 1725 
Q 2256 1581 1919 1581 
Q 1219 1581 811 2004 
Q 403 2428 403 3163 
Q 403 3881 828 4315 
Q 1253 4750 1959 4750 
Q 2769 4750 3195 4129 
Q 3622 3509 3622 2328 
Q 3622 1225 3098 567 
Q 2575 -91 1691 -91 
Q 1453 -91 1209 -44 
Q 966 3 703 97 
z
M 1959 2075 
Q 2384 2075 2632 2365 
Q 2881 2656 2881 3163 
Q 2881 3666 2632 3958 
Q 2384 4250 1959 4250 
Q 1534 4250 1286 3958 
Q 1038 3666 1038 3163 
Q 1038 2656 1286 2365 
Q 1534 2075 1959 2075 
z
" transform="scale(0.015625)"/>
       <path id="DejaVuSans-29" d="M 513 4856 
L 1013 4856 
Q 1481 4119 1714 3412 
Q 1947 2706 1947 2009 
Q 1947 1309 1714 600 
Q 1481 -109 1013 -844 
L 513 -844 
Q 928 -128 1133 580 
Q 1338 1288 1338 2009 
Q 1338 2731 1133 3434 
Q 928 4138 513 4856 
z
" transform="scale(0.015625)"/>
      </defs>
      <use xlink:href="#DejaVuSans-43"/>
      <use xlink:href="#DejaVuSans-6f" transform="translate(69.824219 0)"/>
      <use xlink:href="#DejaVuSans-75" transform="translate(131.005859 0)"/>
      <use xlink:href="#DejaVuSans-6e" transform="translate(194.384766 0)"/>
      <use xlink:href="#DejaVuSans-74" transform="translate(257.763672 0)"/>
      <use xlink:href="#DejaVuSans-65" transform="translate(296.972656 0)"/>
      <use xlink:href="#DejaVuSans-72" transform="translate(358.496094 0)"/>
      <use xlink:href="#DejaVuSans-20" transform="translate(399.609375 0)"/>
      <use xlink:href="#DejaVuSans-44" transform="translate(431.396484 0)"/>
      <use xlink:href="#DejaVuSans-61" transform="translate(508.398438 0)"/>
      <use xlink:href="#DejaVuSans-74" transform="translate(569.677734 0)"/>
      <use xlink:href="#DejaVuSans-61" transform="translate(608.886719 0)"/>
      <use xlink:href="#DejaVuSans-20" transform="translate(670.166016 0)"/>
      <use xlink:href="#DejaVuSans-28" transform="translate(701.953125 0)"/>
      <use xlink:href="#DejaVuSans-54" transform="translate(740.966797 0)"/>
      <use xlink:href="#DejaVuSans-6f" transform="translate(785.050781 0)"/>
      <use xlink:href="#DejaVuSans-74" transform="translate(846.232422 0)"/>
      <use xlink:href="#DejaVuSans-61" transform="translate(885.441406 0)"/>
      <use xlink:href="#DejaVuSans-6c" transform="translate(946.720703 0)"/>
      <use xlink:href="#DejaVuSans-3a" transform="translate(974.503906 0)"/>
      <use xlink:href="#DejaVuSans-20" transform="translate(1008.195312 0)"/>
      <use xlink:href="#DejaVuSans-31" transform="translate(1039.982422 0)"/>
      <use xlink:href="#DejaVuSans-32" transform="translate(1103.605469 0)"/>
      <use xlink:href="#DejaVuSans-39" transform="translate(1167.228516 0)"/>
      <use xlink:href="#DejaVuSans-38" transform="translate(1230.851562 0)"/>
      <use xlink:href="#DejaVuSans-38" transform="translate(1294.474609 0)"/>
      <use xlink:href="#DejaVuSans-36" transform="translate(1358.097656 0)"/>
      <use xlink:href="#DejaVuSans-29" transform="translate(1421.720703 0)"/>
     </g>
    </g>
    <g id="line2d_40">
     <path d="M 808.53375 62.134062 
L 818.53375 62.134062 
L 828.53375 62.134062 
" style="fill: none; stroke: #5ec962; stroke-width: 2; stroke-linecap: square"/>
     <g>
      <use xlink:href="#mab7505fb61" x="818.53375" y="62.134062" style="fill: #5ec962; stroke: #5ec962; stroke-linejoin: miter"/>
     </g>
    </g>
    <g id="text_23">
     <!-- Match Results (Total: 141637) -->
     <g transform="translate(836.53375 65.634062) scale(0.1 -0.1)">
      <defs>
       <path id="DejaVuSans-33" d="M 2597 2516 
Q 3050 2419 3304 2112 
Q 3559 1806 3559 1356 
Q 3559 666 3084 287 
Q 2609 -91 1734 -91 
Q 1441 -91 1130 -33 
Q 819 25 488 141 
L 488 750 
Q 750 597 1062 519 
Q 1375 441 1716 441 
Q 2309 441 2620 675 
Q 2931 909 2931 1356 
Q 2931 1769 2642 2001 
Q 2353 2234 1838 2234 
L 1294 2234 
L 1294 2753 
L 1863 2753 
Q 2328 2753 2575 2939 
Q 2822 3125 2822 3475 
Q 2822 3834 2567 4026 
Q 2313 4219 1838 4219 
Q 1578 4219 1281 4162 
Q 984 4106 628 3988 
L 628 4550 
Q 988 4650 1302 4700 
Q 1616 4750 1894 4750 
Q 2613 4750 3031 4423 
Q 3450 4097 3450 3541 
Q 3450 3153 3228 2886 
Q 3006 2619 2597 2516 
z
" transform="scale(0.015625)"/>
       <path id="DejaVuSans-37" d="M 525 4666 
L 3525 4666 
L 3525 4397 
L 1831 0 
L 1172 0 
L 2766 4134 
L 525 4134 
L 525 4666 
z
" transform="scale(0.015625)"/>
      </defs>
      <use xlink:href="#DejaVuSans-4d"/>
      <use xlink:href="#DejaVuSans-61" transform="translate(86.279297 0)"/>
      <use xlink:href="#DejaVuSans-74" transform="translate(147.558594 0)"/>
      <use xlink:href="#DejaVuSans-63" transform="translate(186.767578 0)"/>
      <use xlink:href="#DejaVuSans-68" transform="translate(241.748047 0)"/>
      <use xlink:href="#DejaVuSans-20" transform="translate(305.126953 0)"/>
      <use xlink:href="#DejaVuSans-52" transform="translate(336.914062 0)"/>
      <use xlink:href="#DejaVuSans-65" transform="translate(401.896484 0)"/>
      <use xlink:href="#DejaVuSans-73" transform="translate(463.419922 0)"/>
      <use xlink:href="#DejaVuSans-75" transform="translate(515.519531 0)"/>
      <use xlink:href="#DejaVuSans-6c" transform="translate(578.898438 0)"/>
      <use xlink:href="#DejaVuSans-74" transform="translate(606.681641 0)"/>
      <use xlink:href="#DejaVuSans-73" transform="translate(645.890625 0)"/>
      <use xlink:href="#DejaVuSans-20" transform="translate(697.990234 0)"/>
      <use xlink:href="#DejaVuSans-28" transform="translate(729.777344 0)"/>
      <use xlink:href="#DejaVuSans-54" transform="translate(768.791016 0)"/>
      <use xlink:href="#DejaVuSans-6f" transform="translate(812.875 0)"/>
      <use xlink:href="#DejaVuSans-74" transform="translate(874.056641 0)"/>
      <use xlink:href="#DejaVuSans-61" transform="translate(913.265625 0)"/>
      <use xlink:href="#DejaVuSans-6c" transform="translate(974.544922 0)"/>
      <use xlink:href="#DejaVuSans-3a" transform="translate(1002.328125 0)"/>
      <use xlink:href="#DejaVuSans-20" transform="translate(1036.019531 0)"/>
      <use xlink:href="#DejaVuSans-31" transform="translate(1067.806641 0)"/>
      <use xlink:href="#DejaVuSans-34" transform="translate(1131.429688 0)"/>
      <use xlink:href="#DejaVuSans-31" transform="translate(1195.052734 0)"/>
      <use xlink:href="#DejaVuSans-36" transform="translate(1258.675781 0)"/>
      <use xlink:href="#DejaVuSans-33" transform="translate(1322.298828 0)"/>
      <use xlink:href="#DejaVuSans-37" transform="translate(1385.921875 0)"/>
      <use xlink:href="#DejaVuSans-29" transform="translate(1449.544922 0)"/>
     </g>
    </g>
   </g>
  </g>
 </g>
 <defs>
  <clipPath id="p2e0353b717">
   <rect x="45.716875" y="34.3575" width="948.67" height="350.56"/>
  </clipPath>
 </defs>
</svg>
