<svg xmlns="http://www.w3.org/2000/svg" xmlns:xlink="http://www.w3.org/1999/xlink" xmlns:lucid="lucid" width="881" height="998.09"><g transform="translate(-959.5 -42.41318359375009)" lucid:page-tab-id="m-5o7ONTd-nK"><path d="M500 0h1500v1500H500z" fill="#fff"/><path d="M960 54.9a12 12 0 0 1 12-12h28V320h-40z" stroke="#3a414a" fill="#670280"/><path d="M960 320h40v280h-40z" stroke="#3a414a" fill="#415a9a"/><path d="M960 600h40v280h-40z" stroke="#3a414a" fill="#21918c"/><path d="M960 880h40v160h-28a12 12 0 0 1-12-12z" stroke="#3a414a" fill="#5ec962"/><path d="M1000 42.9h828a12 12 0 0 1 12 12V320h-840zM1000 320h840v280h-840zM1000 600h840v280h-840zM1000 880h840v148a12 12 0 0 1-12 12h-828z" stroke="#3a414a" fill="none"/><use xlink:href="#a" transform="matrix(-1.8369701987210297e-16,-1,1,-1.8369701987210297e-16,960.0000000000001,320) translate(116.5068359375 28.017903645833332)"/><use xlink:href="#b" transform="matrix(-1.8369701987210297e-16,-1,1,-1.8369701987210297e-16,960,599.9999999999999) translate(85.70458984375 28.017903645833332)"/><use xlink:href="#c" transform="matrix(-1.8369701987210297e-16,-1,1,-1.8369701987210297e-16,960.0000000000001,880.0000000000001) translate(99.19140625 28.017903645833332)"/><use xlink:href="#d" transform="matrix(-1.8369701987210297e-16,-1,1,-1.8369701987210297e-16,960.0000000000001,1040) translate(44.52457682291667 28.017903645833332)"/><path d="M1040 88a8 8 0 0 1 8-8h144a8 8 0 0 1 8 8v64a8 8 0 0 1-8 8h-144a8 8 0 0 1-8-8z" stroke="#000" stroke-width="2" fill="#fff"/><use xlink:href="#e" transform="matrix(1,0,0,1,1045,85) translate(28.03125 41.5)"/><use xlink:href="#f" transform="matrix(1,0,0,1,1045,85) translate(69.568359375 41.5)"/><path d="M1240 368a8 8 0 0 1 8-8h144a8 8 0 0 1 8 8v64a8 8 0 0 1-8 8h-144a8 8 0 0 1-8-8z" stroke="#000" stroke-width="2" fill="#fff"/><use xlink:href="#g" transform="matrix(1,0,0,1,1245,365) translate(20.69677734375 28.375)"/><use xlink:href="#h" transform="matrix(1,0,0,1,1245,365) translate(97.53955078125 28.375)"/><use xlink:href="#i" transform="matrix(1,0,0,1,1245,365) translate(37.5234375 54.510156249999994)"/><path d="M1240 88a8 8 0 0 1 8-8h144a8 8 0 0 1 8 8v64a8 8 0 0 1-8 8h-144a8 8 0 0 1-8-8z" stroke="#000" stroke-width="2" fill="#fff"/><use xlink:href="#j" transform="matrix(1,0,0,1,1245,85) translate(5.4521484375 28.375)"/><use xlink:href="#k" transform="matrix(1,0,0,1,1245,85) translate(62.4140625 28.375)"/><use xlink:href="#l" transform="matrix(1,0,0,1,1245,85) translate(40.564453125 54.510156249999994)"/><path d="M1320 161.5v181.12" stroke="#3a414a" fill="none"/><path d="M1320.47 161.5h-.94v-.5h.94z" stroke="#3a414a" stroke-width=".05" fill="#3a414a"/><path d="M1320 357.38l-4.63-14.26h9.27z" stroke="#3a414a" fill="#3a414a"/><path d="M1120 161.5V289a12 12 0 0 0 12 12h176a12 12 0 0 1 12 12v29.62" stroke="#3a414a" fill="none"/><path d="M1120.47 161.5h-.94v-.5h.94z" stroke="#3a414a" stroke-width=".05" fill="#3a414a"/><path d="M1320 357.38l-4.63-14.26h9.27z" stroke="#3a414a" fill="#3a414a"/><path d="M1520 161.5V189a12 12 0 0 1-12 12h-57a12 12 0 0 0-12 12v175a12 12 0 0 1-12 12h-9.62" stroke="#3a414a" fill="none"/><path d="M1520.47 161.5h-.94v-.5h.94z" stroke="#3a414a" stroke-width=".05" fill="#3a414a"/><path d="M1402.62 400l14.26-4.63v9.26z" stroke="#3a414a" fill="#3a414a"/><path d="M1238.5 400h-21.12" stroke="#3a414a" fill="none"/><path d="M1239 400.48h-.5v-.96h.5z" stroke="#3a414a" stroke-width=".05" fill="#3a414a"/><path d="M1202.62 400l14.26-4.63v9.26z" stroke="#3a414a" fill="#3a414a"/><path d="M1240 648a8 8 0 0 1 8-8h144a8 8 0 0 1 8 8v68.05a8 8 0 0 1-8 8h-144a8 8 0 0 1-8-8z" stroke="#000" stroke-width="2" fill="#fff"/><use xlink:href="#m" transform="matrix(1,0,0,1,1245,645) translate(14.25439453125 43.21875)"/><use xlink:href="#n" transform="matrix(1,0,0,1,1245,645) translate(56.70556640625 43.21875)"/><path d="M1120 561.5v61.12" stroke="#3a414a" fill="none"/><path d="M1120.47 561.5h-.94v-.5h.94z" stroke="#3a414a" stroke-width=".05" fill="#3a414a"/><path d="M1120 637.38l-4.63-14.26h9.27z" stroke="#3a414a" fill="#3a414a"/><path d="M1401.5 400h25.5a12 12 0 0 1 12 12v258.02a12 12 0 0 1-12 12h-9.62" stroke="#3a414a" fill="none"/><path d="M1401.5 400.48h-.5v-.96h.5z" stroke="#3a414a" stroke-width=".05" fill="#3a414a"/><path d="M1402.62 682.02l14.26-4.63v9.26z" stroke="#3a414a" fill="#3a414a"/><path d="M1040 488a8 8 0 0 1 8-8h144a8 8 0 0 1 8 8v64a8 8 0 0 1-8 8h-144a8 8 0 0 1-8-8z" stroke="#000" stroke-width="2" fill="#fff"/><use xlink:href="#o" transform="matrix(1,0,0,1,1045,485) translate(35.5546875 28.375)"/><use xlink:href="#p" transform="matrix(1,0,0,1,1045,485) translate(32.34228515625 54.510156249999994)"/><path d="M1040 648a8 8 0 0 1 8-8h144a8 8 0 0 1 8 8v68.05a8 8 0 0 1-8 8h-144a8 8 0 0 1-8-8z" stroke="#000" stroke-width="2" fill="#fff"/><use xlink:href="#q" transform="matrix(1,0,0,1,1045,645) translate(8.7392578125 31.5)"/><use xlink:href="#r" transform="matrix(1,0,0,1,1045,645) translate(92.6923828125 31.5)"/><use xlink:href="#s" transform="matrix(1,0,0,1,1045,645) translate(17.8798828125 57.635156249999994)"/><path d="M1040 368a8 8 0 0 1 8-8h144a8 8 0 0 1 8 8v64a8 8 0 0 1-8 8h-144a8 8 0 0 1-8-8z" stroke="#000" stroke-width="2" fill="#fff"/><use xlink:href="#t" transform="matrix(1,0,0,1,1045,365) translate(10.646484375 28.375)"/><use xlink:href="#u" transform="matrix(1,0,0,1,1045,365) translate(66.140625 28.375)"/><use xlink:href="#v" transform="matrix(1,0,0,1,1045,365) translate(40.546875 54.510156249999994)"/><path d="M1540 228a8 8 0 0 1 8-8h144a8 8 0 0 1 8 8v64a8 8 0 0 1-8 8h-144a8 8 0 0 1-8-8z" stroke="#000" stroke-width="2" fill="#fff"/><use xlink:href="#w" transform="matrix(1,0,0,1,1545,225) translate(18.416015625 28.375)"/><use xlink:href="#x" transform="matrix(1,0,0,1,1545,225) translate(63.380859375 28.375)"/><use xlink:href="#y" transform="matrix(1,0,0,1,1545,225) translate(55.4091796875 54.510156249999994)"/><path d="M1320 725.55v17.1" stroke="#3a414a" fill="none"/><path d="M1320.47 725.56h-.94v-.5h.94z" stroke="#3a414a" stroke-width=".05" fill="#3a414a"/><path d="M1320 757.43l-4.63-14.27h9.27z" stroke="#3a414a" fill="#3a414a"/><path d="M1240 925.98a8 8 0 0 1 8-8h144a8 8 0 0 1 8 8V994a8 8 0 0 1-8 8h-144a8 8 0 0 1-8-8z" stroke="#000" stroke-width="2" fill="#fff"/><use xlink:href="#z" transform="matrix(1,0,0,1,1245,922.9751953125) translate(4.06787109375 43.21875)"/><use xlink:href="#A" transform="matrix(1,0,0,1,1245,922.9751953125) translate(99.04248046875 43.21875)"/><path d="M1401.5 800h21.12" stroke="#3a414a" fill="none"/><path d="M1401.5 800.48h-.5v-.96h.5z" stroke="#3a414a" stroke-width=".05" fill="#3a414a"/><path d="M1437.38 800l-14.26 4.63v-9.26z" stroke="#3a414a" fill="#3a414a"/><path d="M1440 768a8 8 0 0 1 8-8h144a8 8 0 0 1 8 8v64a8 8 0 0 1-8 8h-144a8 8 0 0 1-8-8z" stroke="#000" stroke-width="2" fill="#fff"/><use xlink:href="#B" transform="matrix(1,0,0,1,1445,765) translate(0.79833984375 41.5)"/><use xlink:href="#C" transform="matrix(1,0,0,1,1445,765) translate(55.08837890625 41.5)"/><path d="M1620 301.5V508a12 12 0 0 1-12 12h-76a12 12 0 0 0-12 12v210.66" stroke="#3a414a" fill="none"/><path d="M1620.47 301.5h-.94v-.5h.94z" stroke="#3a414a" stroke-width=".05" fill="#3a414a"/><path d="M1520 757.43l-4.63-14.27h9.27z" stroke="#3a414a" fill="#3a414a"/><path d="M1440 88a8 8 0 0 1 8-8h144a8 8 0 0 1 8 8v64a8 8 0 0 1-8 8h-144a8 8 0 0 1-8-8z" stroke="#000" stroke-width="2" fill="#fff"/><use xlink:href="#D" transform="matrix(1,0,0,1,1445,85) translate(15.51123046875 41.5)"/><use xlink:href="#E" transform="matrix(1,0,0,1,1445,85) translate(62.14599609375 41.5)"/><path d="M1440 925.98a8 8 0 0 1 8-8h144a8 8 0 0 1 8 8V994a8 8 0 0 1-8 8h-144a8 8 0 0 1-8-8z" stroke="#000" stroke-width="2" fill="#fff"/><use xlink:href="#F" transform="matrix(1,0,0,1,1445,922.9751953125) translate(23.3203125 31.5)"/><use xlink:href="#G" transform="matrix(1,0,0,1,1445,922.9751953125) translate(54.06884765625 57.635156249999994)"/><path d="M1240 768a8 8 0 0 1 8-8h144a8 8 0 0 1 8 8v64a8 8 0 0 1-8 8h-144a8 8 0 0 1-8-8z" stroke="#000" stroke-width="2" fill="#fff"/><use xlink:href="#H" transform="matrix(1,0,0,1,1245,765) translate(23.4851259765625 29.8819875)"/><use xlink:href="#I" transform="matrix(1,0,0,1,1245,765) translate(80.748276953125 29.8819875)"/><use xlink:href="#J" transform="matrix(1,0,0,1,1245,765) translate(37.569359375 52.55759654947917)"/><path d="M1620 301.5V508a12 12 0 0 0 12 12h76a12 12 0 0 1 12 12v372.64" stroke="#3a414a" fill="none"/><path d="M1620.47 301.5h-.94v-.5h.94z" stroke="#3a414a" stroke-width=".05" fill="#3a414a"/><path d="M1720 919.4l-4.63-14.26h9.27z" stroke="#3a414a" fill="#3a414a"/><path d="M1640 930.02a8 8 0 0 1 8-8h144a8 8 0 0 1 8 8v64a8 8 0 0 1-8 8h-144a8 8 0 0 1-8-8z" stroke="#000" stroke-width="2" fill="#fff"/><g><use xlink:href="#w" transform="matrix(1,0,0,1,1645,927.0248046874999) translate(18.416015625 28.375)"/><use xlink:href="#x" transform="matrix(1,0,0,1,1645,927.0248046874999) translate(63.380859375 28.375)"/><use xlink:href="#K" transform="matrix(1,0,0,1,1645,927.0248046874999) translate(33.64306640625 54.510156249999994)"/></g><path d="M1120 441.5v21.12" stroke="#3a414a" fill="none"/><path d="M1120.47 441.5h-.94v-.5h.94z" stroke="#3a414a" stroke-width=".05" fill="#3a414a"/><path d="M1120 477.38l-4.63-14.26h9.27z" stroke="#3a414a" fill="#3a414a"/><path d="M1320 841.5v59.1" stroke="#3a414a" fill="none"/><path d="M1320.47 841.5h-.94v-.5h.94z" stroke="#3a414a" stroke-width=".05" fill="#3a414a"/><path d="M1320 915.36l-4.63-14.27h9.27z" stroke="#3a414a" fill="#3a414a"/><path d="M1520 841.5v59.1" stroke="#3a414a" fill="none"/><path d="M1520.47 841.5h-.94v-.5h.94z" stroke="#3a414a" stroke-width=".05" fill="#3a414a"/><path d="M1520 915.36l-4.63-14.27h9.27z" stroke="#3a414a" fill="#3a414a"/><path d="M1201.5 682.02h21.12" stroke="#3a414a" fill="none"/><path d="M1201.5 682.5h-.5v-.95h.5z" stroke="#3a414a" stroke-width=".05" fill="#3a414a"/><path d="M1237.38 682.02l-14.26 4.64v-9.27z" stroke="#3a414a" fill="#3a414a"/><defs><path d="M645 0H180v-1490h484c435 0 692 280 692 742 0 466-257 748-711 748zM370-168h263c363 0 539-218 539-580 0-358-176-574-521-574H370v1154" id="L"/><path d="M471 26C259 26 90-98 90-318c0-256 228-303 435-329 202-27 287-16 287-108 0-139-79-219-234-219-161 0-248 86-283 164l-173-57c86-203 278-265 451-265 150 0 419 46 419 395V0H815v-152h-12C765-73 660 26 471 26zm31-159c199 0 310-134 310-271v-155c-30 35-226 55-295 64-131 17-246 59-246 186 0 116 97 176 231 176" id="M"/><path d="M598-1118v154H368v674c0 100 37 144 132 144 23 0 62-6 92-12L629-6c-37 13-88 20-134 20-193 0-307-107-307-290v-688H20v-154h168v-266h180v266h230" id="N"/><g id="a"><use transform="matrix(0.010091145833333332,0,0,0.010091145833333332,0,0)" xlink:href="#L"/><use transform="matrix(0.010091145833333332,0,0,0.010091145833333332,14.914713541666664,0)" xlink:href="#M"/><use transform="matrix(0.010091145833333332,0,0,0.010091145833333332,26.519531249999996,0)" xlink:href="#N"/><use transform="matrix(0.010091145833333332,0,0,0.010091145833333332,33.38151041666666,0)" xlink:href="#M"/></g><path d="M180 0v-1490h510c348 0 508 209 508 474 0 266-160 477-507 477H370V0H180zm190-706h312c236 0 327-133 327-310 0-176-91-307-329-307H370v617" id="O"/><path d="M158 0v-1118h174v172h12c41-113 157-188 290-188 26 0 70 2 91 3v181c-11-2-60-10-108-10-161 0-279 109-279 260V0H158" id="P"/><path d="M613 24c-304 0-509-231-509-576 0-350 205-580 509-580 305 0 511 230 511 580 0 345-206 576-511 576zm0-161c226 0 329-195 329-415 0-222-103-419-329-419-223 0-326 196-326 419 0 220 103 415 326 415" id="Q"/><path d="M613 24c-304 0-509-231-509-576 0-350 205-580 509-580 216 0 392 114 453 309l-173 49c-33-115-133-197-280-197-223 0-326 196-326 419 0 220 103 415 326 415 150 0 252-85 285-206l172 49C1010-95 832 24 613 24" id="R"/><path d="M628 24c-324 0-524-230-524-574 0-343 198-582 503-582 237 0 487 146 487 559v75H286c9 234 145 362 343 362 132 0 231-58 273-172l174 48C1024-91 857 24 628 24zM287-650h624c-17-190-120-322-304-322-192 0-309 151-320 322" id="S"/><path d="M538 24C308 24 148-78 108-271l171-41c32 123 123 178 257 178 156 0 256-77 256-169 0-77-54-128-164-154l-186-44c-203-48-300-148-300-305 0-192 176-326 414-326 230 0 351 112 402 269l-163 42c-31-80-94-158-238-158-133 0-233 69-233 162 0 83 57 129 188 160l169 40c203 48 298 149 298 302 0 196-179 339-441 339" id="T"/><path d="M158 0v-1118h180V0H158zm91-1301c-68 0-125-53-125-119s57-119 125-119c69 0 126 53 126 119s-57 119-126 119" id="U"/><path d="M338-670V0H158v-1118h173l1 207c72-158 192-221 342-221 226 0 378 139 378 422V0H872v-695c0-172-96-275-252-275-161 0-282 109-282 300" id="V"/><path d="M611 442c-248 0-391-105-460-228l146-94c47 65 117 165 314 165 178 0 307-82 307-266v-224h-17C863-141 792-18 576-18c-268 0-472-195-472-546 0-346 197-568 476-568 216 0 288 133 326 193h17v-179h175V29c0 289-215 413-487 413zm-5-620c203 0 314-146 314-390 0-237-108-403-314-403-213 0-319 180-319 403 0 230 109 390 319 390" id="W"/><g id="b"><use transform="matrix(0.010091145833333332,0,0,0.010091145833333332,0,0)" xlink:href="#O"/><use transform="matrix(0.010091145833333332,0,0,0.010091145833333332,13.199218749999998,0)" xlink:href="#P"/><use transform="matrix(0.010091145833333332,0,0,0.010091145833333332,20.636393229166664,0)" xlink:href="#Q"/><use transform="matrix(0.010091145833333332,0,0,0.010091145833333332,33.0283203125,0)" xlink:href="#R"/><use transform="matrix(0.010091145833333332,0,0,0.010091145833333332,44.83496093750001,0)" xlink:href="#S"/><use transform="matrix(0.010091145833333332,0,0,0.010091145833333332,56.8837890625,0)" xlink:href="#T"/><use transform="matrix(0.010091145833333332,0,0,0.010091145833333332,67.79231770833333,0)" xlink:href="#T"/><use transform="matrix(0.010091145833333332,0,0,0.010091145833333332,78.70084635416666,0)" xlink:href="#U"/><use transform="matrix(0.010091145833333332,0,0,0.010091145833333332,83.70605468749999,0)" xlink:href="#V"/><use transform="matrix(0.010091145833333332,0,0,0.010091145833333332,95.91634114583333,0)" xlink:href="#W"/></g><path d="M52 0l541-1490h220L1361 0h-200l-149-416H398L254 0H52zm404-582h497c-103-290-145-390-251-756-108 377-145 460-246 756" id="X"/><path d="M338-1490V0H158v-1490h180" id="Y"/><path d="M140 405l46-156c120 36 205 19 263-150l32-93L54-1118h197c107 313 237 620 324 950 87-331 219-637 326-950h196L606 167c-68 178-176 259-334 259-64 0-113-12-132-21" id="Z"/><g id="c"><use transform="matrix(0.010091145833333332,0,0,0.010091145833333332,0,0)" xlink:href="#X"/><use transform="matrix(0.010091145833333332,0,0,0.010091145833333332,14.258789062499998,0)" xlink:href="#V"/><use transform="matrix(0.010091145833333332,0,0,0.010091145833333332,26.46907552083333,0)" xlink:href="#M"/><use transform="matrix(0.010091145833333332,0,0,0.010091145833333332,38.07389322916666,0)" xlink:href="#Y"/><use transform="matrix(0.010091145833333332,0,0,0.010091145833333332,43.18001302083333,0)" xlink:href="#Z"/><use transform="matrix(0.010091145833333332,0,0,0.010091145833333332,54.79492187499999,0)" xlink:href="#T"/><use transform="matrix(0.010091145833333332,0,0,0.010091145833333332,65.70345052083333,0)" xlink:href="#U"/><use transform="matrix(0.010091145833333332,0,0,0.010091145833333332,70.70865885416666,0)" xlink:href="#T"/></g><path d="M180 0v-1490h510c348 0 508 194 508 460 0 198-88 351-276 417L1256 0h-220L726-579c-117 2-238 0-356 1V0H180zm190-747h312c235 0 327-108 327-283 0-177-92-293-329-293H370v576" id="aa"/><path d="M537 14c-226 0-379-139-379-422v-710h180v695c0 172 97 275 253 275 160 0 281-109 281-300v-670h181V0H879v-209C806-46 684 14 537 14" id="ab"/><g id="d"><use transform="matrix(0.010091145833333332,0,0,0.010091145833333332,0,0)" xlink:href="#aa"/><use transform="matrix(0.010091145833333332,0,0,0.010091145833333332,12.997395833333332,0)" xlink:href="#S"/><use transform="matrix(0.010091145833333332,0,0,0.010091145833333332,25.046223958333332,0)" xlink:href="#T"/><use transform="matrix(0.010091145833333332,0,0,0.010091145833333332,35.95475260416666,0)" xlink:href="#ab"/><use transform="matrix(0.010091145833333332,0,0,0.010091145833333332,48.17513020833332,0)" xlink:href="#Y"/><use transform="matrix(0.010091145833333332,0,0,0.010091145833333332,53.48307291666666,0)" xlink:href="#N"/><use transform="matrix(0.010091145833333332,0,0,0.010091145833333332,60.04231770833333,0)" xlink:href="#T"/></g><path fill="#3a414a" d="M789 20c-398 0-667-293-667-764 0-473 273-766 655-766 315 0 558 198 612 487h-196c-61-191-204-311-415-311-262 0-471 207-471 590 0 380 208 588 482 588 249 0 420-165 425-427H828v-166h572v163c0 370-256 606-611 606" id="ac"/><path fill="#3a414a" d="M180 0v-1490h510c348 0 508 209 508 474 0 266-160 477-507 477H370V0H180zm190-706h312c236 0 327-133 327-310 0-176-91-307-329-307H370v617" id="ad"/><path fill="#3a414a" d="M657 26c-323 0-524-166-541-416h195c15 169 171 246 346 246 202 0 356-106 356-265 5-203-294-238-475-293-239-73-380-191-380-389 0-252 224-419 512-419 294 0 499 171 508 396H992c-17-145-151-228-328-228-193 0-321 102-321 242 0 156 175 211 284 241l149 41c160 44 422 134 422 412 0 244-197 432-541 432" id="ae"/><g id="e"><use transform="matrix(0.0087890625,0,0,0.0087890625,0,0)" xlink:href="#ac"/><use transform="matrix(0.0087890625,0,0,0.0087890625,13.4296875,0)" xlink:href="#ad"/><use transform="matrix(0.0087890625,0,0,0.0087890625,24.92578125,0)" xlink:href="#ae"/></g><path fill="#3a414a" d="M613 24c-304 0-509-231-509-576 0-350 205-580 509-580 305 0 511 230 511 580 0 345-206 576-511 576zm0-161c226 0 329-195 329-415 0-222-103-419-329-419-223 0-326 196-326 419 0 220 103 415 326 415" id="af"/><path fill="#3a414a" d="M158 0v-1118h180V0H158zm91-1301c-68 0-125-53-125-119s57-119 125-119c69 0 126 53 126 119s-57 119-126 119" id="ag"/><path fill="#3a414a" d="M338-670V0H158v-1118h173l1 207c72-158 192-221 342-221 226 0 378 139 378 422V0H872v-695c0-172-96-275-252-275-161 0-282 109-282 300" id="ah"/><path fill="#3a414a" d="M598-1118v154H368v674c0 100 37 144 132 144 23 0 62-6 92-12L629-6c-37 13-88 20-134 20-193 0-307-107-307-290v-688H20v-154h168v-266h180v266h230" id="ai"/><path fill="#3a414a" d="M538 24C308 24 148-78 108-271l171-41c32 123 123 178 257 178 156 0 256-77 256-169 0-77-54-128-164-154l-186-44c-203-48-300-148-300-305 0-192 176-326 414-326 230 0 351 112 402 269l-163 42c-31-80-94-158-238-158-133 0-233 69-233 162 0 83 57 129 188 160l169 40c203 48 298 149 298 302 0 196-179 339-441 339" id="aj"/><g id="f"><use transform="matrix(0.0087890625,0,0,0.0087890625,0,0)" xlink:href="#ad"/><use transform="matrix(0.0087890625,0,0,0.0087890625,11.3994140625,0)" xlink:href="#af"/><use transform="matrix(0.0087890625,0,0,0.0087890625,22.1923828125,0)" xlink:href="#ag"/><use transform="matrix(0.0087890625,0,0,0.0087890625,26.5517578125,0)" xlink:href="#ah"/><use transform="matrix(0.0087890625,0,0,0.0087890625,37.1865234375,0)" xlink:href="#ai"/><use transform="matrix(0.0087890625,0,0,0.0087890625,42.8994140625,0)" xlink:href="#aj"/></g><path fill="#3a414a" d="M180 0v-1490h270l367 940c28 72 75 218 110 339 35-117 81-264 110-339l362-940h271V0h-187c2-448-5-837 7-1287-157 497-311 829-483 1287H842C666-458 514-784 354-1284c12 438 5 843 7 1284H180" id="ak"/><path fill="#3a414a" d="M471 26C259 26 90-98 90-318c0-256 228-303 435-329 202-27 287-16 287-108 0-139-79-219-234-219-161 0-248 86-283 164l-173-57c86-203 278-265 451-265 150 0 419 46 419 395V0H815v-152h-12C765-73 660 26 471 26zm31-159c199 0 310-134 310-271v-155c-30 35-226 55-295 64-131 17-246 59-246 186 0 116 97 176 231 176" id="al"/><path fill="#3a414a" d="M158 0v-1490h180v865h22l478-493h223L593-638 1096 0H865L456-523 338-412V0H158" id="am"/><path fill="#3a414a" d="M611 442c-248 0-391-105-460-228l146-94c47 65 117 165 314 165 178 0 307-82 307-266v-224h-17C863-141 792-18 576-18c-268 0-472-195-472-546 0-346 197-568 476-568 216 0 288 133 326 193h17v-179h175V29c0 289-215 413-487 413zm-5-620c203 0 314-146 314-390 0-237-108-403-314-403-213 0-319 180-319 403 0 230 109 390 319 390" id="an"/><g id="g"><use transform="matrix(0.0087890625,0,0,0.0087890625,0,0)" xlink:href="#ak"/><use transform="matrix(0.0087890625,0,0,0.0087890625,16.259765625,0)" xlink:href="#al"/><use transform="matrix(0.0087890625,0,0,0.0087890625,26.3671875,0)" xlink:href="#aj"/><use transform="matrix(0.0087890625,0,0,0.0087890625,35.8681640625,0)" xlink:href="#am"/><use transform="matrix(0.0087890625,0,0,0.0087890625,45.7470703125,0)" xlink:href="#ag"/><use transform="matrix(0.0087890625,0,0,0.0087890625,50.1064453125,0)" xlink:href="#ah"/><use transform="matrix(0.0087890625,0,0,0.0087890625,60.7412109375,0)" xlink:href="#an"/></g><path fill="#3a414a" d="M577 24c-279 0-473-224-473-580 0-354 195-576 474-576 218 0 287 134 324 193h14v-551h180V0H922v-173h-20C865-111 790 24 577 24zm27-161c203 0 314-172 314-421 0-247-108-413-314-413-212 0-317 181-317 413 0 235 108 421 317 421" id="ao"/><g id="h"><use transform="matrix(0.0087890625,0,0,0.0087890625,0,0)" xlink:href="#al"/><use transform="matrix(0.0087890625,0,0,0.0087890625,10.107421875,0)" xlink:href="#ah"/><use transform="matrix(0.0087890625,0,0,0.0087890625,20.7421875,0)" xlink:href="#ao"/></g><path fill="#3a414a" d="M783 20c-382 0-661-292-661-764 0-473 279-766 661-766 302 0 548 182 601 489h-190c-42-204-217-313-411-313-268 0-476 208-476 590 0 381 209 588 476 588 195 0 369-110 411-313h190c-52 303-296 489-601 489" id="ap"/><path fill="#3a414a" d="M338-1490V0H158v-1490h180" id="aq"/><path fill="#3a414a" d="M628 24c-324 0-524-230-524-574 0-343 198-582 503-582 237 0 487 146 487 559v75H286c9 234 145 362 343 362 132 0 231-58 273-172l174 48C1024-91 857 24 628 24zM287-650h624c-17-190-120-322-304-322-192 0-309 151-320 322" id="ar"/><g id="i"><use transform="matrix(0.0087890625,0,0,0.0087890625,0,0)" xlink:href="#ap"/><use transform="matrix(0.0087890625,0,0,0.0087890625,13.1484375,0)" xlink:href="#aq"/><use transform="matrix(0.0087890625,0,0,0.0087890625,17.5078125,0)" xlink:href="#ar"/><use transform="matrix(0.0087890625,0,0,0.0087890625,28.177734375,0)" xlink:href="#al"/><use transform="matrix(0.0087890625,0,0,0.0087890625,38.28515625,0)" xlink:href="#ah"/><use transform="matrix(0.0087890625,0,0,0.0087890625,48.919921875,0)" xlink:href="#ag"/><use transform="matrix(0.0087890625,0,0,0.0087890625,53.279296875,0)" xlink:href="#ah"/><use transform="matrix(0.0087890625,0,0,0.0087890625,63.9140625,0)" xlink:href="#an"/></g><path fill="#3a414a" d="M180 0v-1490h528c311 0 458 177 458 395 0 191-114 278-244 313v14c139 9 302 137 302 371 0 225-148 397-499 397H180zm190-168h350c232 0 321-102 321-231 0-149-120-277-311-277H370v508zm0-668h328c160 0 286-101 286-255 0-129-87-231-280-231H370v486" id="as"/><g id="j"><use transform="matrix(0.0087890625,0,0,0.0087890625,0,0)" xlink:href="#as"/><use transform="matrix(0.0087890625,0,0,0.0087890625,11.77734375,0)" xlink:href="#al"/><use transform="matrix(0.0087890625,0,0,0.0087890625,21.884765625,0)" xlink:href="#ah"/><use transform="matrix(0.0087890625,0,0,0.0087890625,32.51953125,0)" xlink:href="#am"/><use transform="matrix(0.0087890625,0,0,0.0087890625,42.3984375,0)" xlink:href="#aj"/></g><path fill="#3a414a" d="M537 14c-226 0-379-139-379-422v-710h180v695c0 172 97 275 253 275 160 0 281-109 281-300v-670h181V0H879v-209C806-46 684 14 537 14" id="at"/><g id="k"><use transform="matrix(0.0087890625,0,0,0.0087890625,0,0)" xlink:href="#ad"/><use transform="matrix(0.0087890625,0,0,0.0087890625,11.3994140625,0)" xlink:href="#ar"/><use transform="matrix(0.0087890625,0,0,0.0087890625,21.8935546875,0)" xlink:href="#ah"/><use transform="matrix(0.0087890625,0,0,0.0087890625,32.5283203125,0)" xlink:href="#ag"/><use transform="matrix(0.0087890625,0,0,0.0087890625,36.8876953125,0)" xlink:href="#ah"/><use transform="matrix(0.0087890625,0,0,0.0087890625,47.5224609375,0)" xlink:href="#aj"/><use transform="matrix(0.0087890625,0,0,0.0087890625,57.0234375,0)" xlink:href="#at"/><use transform="matrix(0.0087890625,0,0,0.0087890625,67.6669921875,0)" xlink:href="#aq"/><use transform="matrix(0.0087890625,0,0,0.0087890625,72.0263671875,0)" xlink:href="#al"/></g><path fill="#3a414a" d="M140 405l46-156c120 36 205 19 263-150l32-93L54-1118h197c107 313 237 620 324 950 87-331 219-637 326-950h196L606 167c-68 178-176 259-334 259-64 0-113-12-132-21" id="au"/><g id="l"><use transform="matrix(0.0087890625,0,0,0.0087890625,0,0)" xlink:href="#ad"/><use transform="matrix(0.0087890625,0,0,0.0087890625,11.3994140625,0)" xlink:href="#af"/><use transform="matrix(0.0087890625,0,0,0.0087890625,22.1923828125,0)" xlink:href="#aq"/><use transform="matrix(0.0087890625,0,0,0.0087890625,26.6396484375,0)" xlink:href="#au"/><use transform="matrix(0.0087890625,0,0,0.0087890625,36.404296875,0)" xlink:href="#an"/><use transform="matrix(0.0087890625,0,0,0.0087890625,47.443359375,0)" xlink:href="#af"/><use transform="matrix(0.0087890625,0,0,0.0087890625,58.236328125,0)" xlink:href="#ah"/></g><path fill="#3a414a" d="M158 418v-1536h174v179h20c37-59 106-193 324-193 279 0 474 222 474 576 0 356-194 580-473 580-213 0-288-135-325-197h-14v591H158zm492-555c209 0 317-186 317-421 0-232-105-413-317-413-206 0-314 166-314 413 0 249 111 421 314 421" id="av"/><g id="m"><use transform="matrix(0.0087890625,0,0,0.0087890625,0,0)" xlink:href="#ak"/><use transform="matrix(0.0087890625,0,0,0.0087890625,16.259765625,0)" xlink:href="#al"/><use transform="matrix(0.0087890625,0,0,0.0087890625,26.3671875,0)" xlink:href="#av"/></g><path fill="#3a414a" d="M613 24c-304 0-509-231-509-576 0-350 205-580 509-580 216 0 392 114 453 309l-173 49c-33-115-133-197-280-197-223 0-326 196-326 419 0 220 103 415 326 415 150 0 252-85 285-206l172 49C1010-95 832 24 613 24" id="aw"/><path fill="#3a414a" d="M338-670V0H158v-1490h180v566c73-149 190-208 336-208 226 0 379 139 379 422V0H872v-695c0-172-96-275-252-275-161 0-282 109-282 300" id="ax"/><g id="n"><use transform="matrix(0.0087890625,0,0,0.0087890625,0,0)" xlink:href="#ak"/><use transform="matrix(0.0087890625,0,0,0.0087890625,16.259765625,0)" xlink:href="#al"/><use transform="matrix(0.0087890625,0,0,0.0087890625,26.3671875,0)" xlink:href="#ai"/><use transform="matrix(0.0087890625,0,0,0.0087890625,32.080078125,0)" xlink:href="#aw"/><use transform="matrix(0.0087890625,0,0,0.0087890625,42.36328125,0)" xlink:href="#ax"/><use transform="matrix(0.0087890625,0,0,0.0087890625,53.0068359375,0)" xlink:href="#ag"/><use transform="matrix(0.0087890625,0,0,0.0087890625,57.3662109375,0)" xlink:href="#ah"/><use transform="matrix(0.0087890625,0,0,0.0087890625,68.0009765625,0)" xlink:href="#an"/></g><path fill="#3a414a" d="M98-1322v-168h1126v168H757V0H567v-1322H98" id="ay"/><path fill="#3a414a" d="M158 0v-1118h174v172h12c41-113 157-188 290-188 26 0 70 2 91 3v181c-11-2-60-10-108-10-161 0-279 109-279 260V0H158" id="az"/><path fill="#3a414a" d="M157-1118h181V80c1 225-123 350-364 338V252c126 9 184-48 183-172v-1198zm91-183c-68 0-125-53-125-119s57-119 125-119c69 0 126 53 126 119s-57 119-126 119" id="aA"/><g id="o"><use transform="matrix(0.0087890625,0,0,0.0087890625,0,0)" xlink:href="#ay"/><use transform="matrix(0.0087890625,0,0,0.0087890625,10.599609375,0)" xlink:href="#az"/><use transform="matrix(0.0087890625,0,0,0.0087890625,17.3759765625,0)" xlink:href="#al"/><use transform="matrix(0.0087890625,0,0,0.0087890625,27.4833984375,0)" xlink:href="#aA"/><use transform="matrix(0.0087890625,0,0,0.0087890625,31.8427734375,0)" xlink:href="#ar"/><use transform="matrix(0.0087890625,0,0,0.0087890625,42.3369140625,0)" xlink:href="#aw"/><use transform="matrix(0.0087890625,0,0,0.0087890625,52.6201171875,0)" xlink:href="#ai"/><use transform="matrix(0.0087890625,0,0,0.0087890625,58.3330078125,0)" xlink:href="#af"/><use transform="matrix(0.0087890625,0,0,0.0087890625,68.7744140625,0)" xlink:href="#au"/></g><path fill="#3a414a" d="M180 0v-1490h901v168H370v510h643v168H370V0H180" id="aB"/><path fill="#3a414a" d="M158 0v-1118h175l1 205c55-151 181-225 313-225 147 0 245 90 285 228 53-141 190-228 352-228 194 0 352 125 352 384V0h-181v-749c0-161-105-225-225-225-151 0-243 103-243 244V0H807v-767c0-124-93-207-219-207-131 0-250 92-250 270V0H158" id="aC"/><g id="p"><use transform="matrix(0.0087890625,0,0,0.0087890625,0,0)" xlink:href="#aB"/><use transform="matrix(0.0087890625,0,0,0.0087890625,9.9140625,0)" xlink:href="#af"/><use transform="matrix(0.0087890625,0,0,0.0087890625,20.70703125,0)" xlink:href="#az"/><use transform="matrix(0.0087890625,0,0,0.0087890625,27.7646484375,0)" xlink:href="#aC"/><use transform="matrix(0.0087890625,0,0,0.0087890625,43.5322265625,0)" xlink:href="#al"/><use transform="matrix(0.0087890625,0,0,0.0087890625,53.6396484375,0)" xlink:href="#ai"/><use transform="matrix(0.0087890625,0,0,0.0087890625,59.5283203125,0)" xlink:href="#ag"/><use transform="matrix(0.0087890625,0,0,0.0087890625,63.8876953125,0)" xlink:href="#af"/><use transform="matrix(0.0087890625,0,0,0.0087890625,74.6806640625,0)" xlink:href="#ah"/></g><g id="q"><use transform="matrix(0.0087890625,0,0,0.0087890625,0,0)" xlink:href="#ay"/><use transform="matrix(0.0087890625,0,0,0.0087890625,10.599609375,0)" xlink:href="#az"/><use transform="matrix(0.0087890625,0,0,0.0087890625,17.3759765625,0)" xlink:href="#al"/><use transform="matrix(0.0087890625,0,0,0.0087890625,27.4833984375,0)" xlink:href="#aA"/><use transform="matrix(0.0087890625,0,0,0.0087890625,31.8427734375,0)" xlink:href="#ar"/><use transform="matrix(0.0087890625,0,0,0.0087890625,42.3369140625,0)" xlink:href="#aw"/><use transform="matrix(0.0087890625,0,0,0.0087890625,52.6201171875,0)" xlink:href="#ai"/><use transform="matrix(0.0087890625,0,0,0.0087890625,58.3330078125,0)" xlink:href="#af"/><use transform="matrix(0.0087890625,0,0,0.0087890625,68.7744140625,0)" xlink:href="#au"/></g><g id="r"><use transform="matrix(0.0087890625,0,0,0.0087890625,0,0)" xlink:href="#ak"/><use transform="matrix(0.0087890625,0,0,0.0087890625,16.259765625,0)" xlink:href="#af"/><use transform="matrix(0.0087890625,0,0,0.0087890625,27.052734375,0)" xlink:href="#ao"/><use transform="matrix(0.0087890625,0,0,0.0087890625,38.07421875,0)" xlink:href="#ar"/></g><path fill="#3a414a" d="M678-1118v154H420V0H240v-964H20v-154h220v-149c0-194 155-293 318-293 85 0 141 18 168 30l-50 154c-19-6-47-17-97-17-111 0-159 58-159 166v109h258" id="aD"/><g id="s"><use transform="matrix(0.0087890625,0,0,0.0087890625,0,0)" xlink:href="#ap"/><use transform="matrix(0.0087890625,0,0,0.0087890625,13.1484375,0)" xlink:href="#aq"/><use transform="matrix(0.0087890625,0,0,0.0087890625,17.5078125,0)" xlink:href="#al"/><use transform="matrix(0.0087890625,0,0,0.0087890625,27.615234375,0)" xlink:href="#aj"/><use transform="matrix(0.0087890625,0,0,0.0087890625,37.1162109375,0)" xlink:href="#aj"/><use transform="matrix(0.0087890625,0,0,0.0087890625,46.6171875,0)" xlink:href="#ag"/><use transform="matrix(0.0087890625,0,0,0.0087890625,50.9765625,0)" xlink:href="#aD"/><use transform="matrix(0.0087890625,0,0,0.0087890625,57.638671875,0)" xlink:href="#ag"/><use transform="matrix(0.0087890625,0,0,0.0087890625,61.998046875,0)" xlink:href="#aw"/><use transform="matrix(0.0087890625,0,0,0.0087890625,72.45703125,0)" xlink:href="#al"/><use transform="matrix(0.0087890625,0,0,0.0087890625,82.564453125,0)" xlink:href="#ai"/><use transform="matrix(0.0087890625,0,0,0.0087890625,88.453125,0)" xlink:href="#ag"/><use transform="matrix(0.0087890625,0,0,0.0087890625,92.8125,0)" xlink:href="#af"/><use transform="matrix(0.0087890625,0,0,0.0087890625,103.60546875,0)" xlink:href="#ah"/></g><path fill="#3a414a" d="M180 0v-1490h190v644h782v-644h190V0h-190v-678H370V0H180" id="aE"/><g id="t"><use transform="matrix(0.0087890625,0,0,0.0087890625,0,0)" xlink:href="#aE"/><use transform="matrix(0.0087890625,0,0,0.0087890625,13.376953125,0)" xlink:href="#af"/><use transform="matrix(0.0087890625,0,0,0.0087890625,24.169921875,0)" xlink:href="#aC"/><use transform="matrix(0.0087890625,0,0,0.0087890625,39.9375,0)" xlink:href="#ar"/></g><path fill="#3a414a" d="M180 0v-1490h190v1322h690V0H180" id="aF"/><g id="u"><use transform="matrix(0.0087890625,0,0,0.0087890625,0,0)" xlink:href="#aF"/><use transform="matrix(0.0087890625,0,0,0.0087890625,10.177734375,0)" xlink:href="#af"/><use transform="matrix(0.0087890625,0,0,0.0087890625,20.970703125,0)" xlink:href="#aw"/><use transform="matrix(0.0087890625,0,0,0.0087890625,31.4296875,0)" xlink:href="#al"/><use transform="matrix(0.0087890625,0,0,0.0087890625,41.537109375,0)" xlink:href="#ai"/><use transform="matrix(0.0087890625,0,0,0.0087890625,47.42578125,0)" xlink:href="#ag"/><use transform="matrix(0.0087890625,0,0,0.0087890625,51.78515625,0)" xlink:href="#af"/><use transform="matrix(0.0087890625,0,0,0.0087890625,62.578125,0)" xlink:href="#ah"/></g><g id="v"><use transform="matrix(0.0087890625,0,0,0.0087890625,0,0)" xlink:href="#aB"/><use transform="matrix(0.0087890625,0,0,0.0087890625,10.6259765625,0)" xlink:href="#ag"/><use transform="matrix(0.0087890625,0,0,0.0087890625,14.9853515625,0)" xlink:href="#aq"/><use transform="matrix(0.0087890625,0,0,0.0087890625,19.6083984375,0)" xlink:href="#ai"/><use transform="matrix(0.0087890625,0,0,0.0087890625,25.3212890625,0)" xlink:href="#ar"/><use transform="matrix(0.0087890625,0,0,0.0087890625,35.8154296875,0)" xlink:href="#az"/><use transform="matrix(0.0087890625,0,0,0.0087890625,42.873046875,0)" xlink:href="#ag"/><use transform="matrix(0.0087890625,0,0,0.0087890625,47.232421875,0)" xlink:href="#ah"/><use transform="matrix(0.0087890625,0,0,0.0087890625,57.8671875,0)" xlink:href="#an"/></g><path fill="#3a414a" d="M645 0H180v-1490h484c435 0 692 280 692 742 0 466-257 748-711 748zM370-168h263c363 0 539-218 539-580 0-358-176-574-521-574H370v1154" id="aG"/><path fill="#3a414a" d="M784 20c-382 0-662-292-662-764 0-473 280-766 662-766s660 293 660 766c0 472-278 764-660 764zm0-176c266 0 475-207 475-588 0-383-209-590-475-590-268 0-477 208-477 590 0 380 209 588 477 588" id="aH"/><g id="w"><use transform="matrix(0.0087890625,0,0,0.0087890625,0,0)" xlink:href="#aG"/><use transform="matrix(0.0087890625,0,0,0.0087890625,12.990234375,0)" xlink:href="#aH"/><use transform="matrix(0.0087890625,0,0,0.0087890625,26.75390625,0)" xlink:href="#ap"/></g><g id="x"><use transform="matrix(0.0087890625,0,0,0.0087890625,0,0)" xlink:href="#ap"/><use transform="matrix(0.0087890625,0,0,0.0087890625,13.1484375,0)" xlink:href="#af"/><use transform="matrix(0.0087890625,0,0,0.0087890625,23.94140625,0)" xlink:href="#at"/><use transform="matrix(0.0087890625,0,0,0.0087890625,34.5849609375,0)" xlink:href="#ah"/><use transform="matrix(0.0087890625,0,0,0.0087890625,45.2197265625,0)" xlink:href="#ai"/><use transform="matrix(0.0087890625,0,0,0.0087890625,50.9326171875,0)" xlink:href="#ar"/><use transform="matrix(0.0087890625,0,0,0.0087890625,61.4267578125,0)" xlink:href="#az"/></g><g id="y"><use transform="matrix(0.0087890625,0,0,0.0087890625,0,0)" xlink:href="#aG"/><use transform="matrix(0.0087890625,0,0,0.0087890625,12.990234375,0)" xlink:href="#al"/><use transform="matrix(0.0087890625,0,0,0.0087890625,23.09765625,0)" xlink:href="#ai"/><use transform="matrix(0.0087890625,0,0,0.0087890625,29.07421875,0)" xlink:href="#al"/></g><path fill="#3a414a" d="M1096 418H916v-591h-14C865-111 790 24 577 24c-279 0-473-224-473-580 0-354 195-576 474-576 218 0 287 134 324 193h20v-179h174V418zM604-137c203 0 314-172 314-421 0-247-108-413-314-413-212 0-317 181-317 413 0 235 108 421 317 421" id="aI"/><g id="z"><use transform="matrix(0.0087890625,0,0,0.0087890625,0,0)" xlink:href="#aB"/><use transform="matrix(0.0087890625,0,0,0.0087890625,10.0986328125,0)" xlink:href="#az"/><use transform="matrix(0.0087890625,0,0,0.0087890625,16.576171875,0)" xlink:href="#ar"/><use transform="matrix(0.0087890625,0,0,0.0087890625,27.0703125,0)" xlink:href="#aI"/><use transform="matrix(0.0087890625,0,0,0.0087890625,38.091796875,0)" xlink:href="#at"/><use transform="matrix(0.0087890625,0,0,0.0087890625,48.7353515625,0)" xlink:href="#ar"/><use transform="matrix(0.0087890625,0,0,0.0087890625,59.2294921875,0)" xlink:href="#ah"/><use transform="matrix(0.0087890625,0,0,0.0087890625,69.8642578125,0)" xlink:href="#aw"/><use transform="matrix(0.0087890625,0,0,0.0087890625,79.7958984375,0)" xlink:href="#au"/></g><g id="A"><use transform="matrix(0.0087890625,0,0,0.0087890625,0,0)" xlink:href="#ak"/><use transform="matrix(0.0087890625,0,0,0.0087890625,16.259765625,0)" xlink:href="#al"/><use transform="matrix(0.0087890625,0,0,0.0087890625,26.3671875,0)" xlink:href="#av"/><use transform="matrix(0.0087890625,0,0,0.0087890625,37.388671875,0)" xlink:href="#aj"/></g><g id="B"><use transform="matrix(0.0087890625,0,0,0.0087890625,0,0)" xlink:href="#ay"/><use transform="matrix(0.0087890625,0,0,0.0087890625,10.599609375,0)" xlink:href="#az"/><use transform="matrix(0.0087890625,0,0,0.0087890625,17.0771484375,0)" xlink:href="#ar"/><use transform="matrix(0.0087890625,0,0,0.0087890625,27.5712890625,0)" xlink:href="#ah"/><use transform="matrix(0.0087890625,0,0,0.0087890625,38.2060546875,0)" xlink:href="#ao"/></g><g id="C"><use transform="matrix(0.0087890625,0,0,0.0087890625,0,0)" xlink:href="#ap"/><use transform="matrix(0.0087890625,0,0,0.0087890625,13.1484375,0)" xlink:href="#af"/><use transform="matrix(0.0087890625,0,0,0.0087890625,23.94140625,0)" xlink:href="#az"/><use transform="matrix(0.0087890625,0,0,0.0087890625,30.9990234375,0)" xlink:href="#az"/><use transform="matrix(0.0087890625,0,0,0.0087890625,37.4765625,0)" xlink:href="#ar"/><use transform="matrix(0.0087890625,0,0,0.0087890625,47.970703125,0)" xlink:href="#aq"/><use transform="matrix(0.0087890625,0,0,0.0087890625,52.330078125,0)" xlink:href="#al"/><use transform="matrix(0.0087890625,0,0,0.0087890625,62.4375,0)" xlink:href="#ai"/><use transform="matrix(0.0087890625,0,0,0.0087890625,68.326171875,0)" xlink:href="#ag"/><use transform="matrix(0.0087890625,0,0,0.0087890625,72.685546875,0)" xlink:href="#af"/><use transform="matrix(0.0087890625,0,0,0.0087890625,83.478515625,0)" xlink:href="#ah"/></g><g id="D"><use transform="matrix(0.0087890625,0,0,0.0087890625,0,0)" xlink:href="#aH"/><use transform="matrix(0.0087890625,0,0,0.0087890625,13.763671875,0)" xlink:href="#ae"/><use transform="matrix(0.0087890625,0,0,0.0087890625,25.3125,0)" xlink:href="#ak"/></g><path fill="#3a414a" d="M180 0v-1490h224l606 953c40 63 108 177 176 312-27-437-7-821-13-1265h190V0h-226C860-448 622-778 356-1262c27 476 11 792 15 1262H180" id="aJ"/><path fill="#3a414a" d="M409 0L70-1118h191c89 329 165 560 243 925 75-353 154-601 240-925h192c85 325 161 564 235 922 77-354 157-598 244-922h191L1267 0h-179c-86-307-176-590-250-913C763-588 675-308 588 0H409" id="aK"/><g id="E"><use transform="matrix(0.0087890625,0,0,0.0087890625,0,0)" xlink:href="#aJ"/><use transform="matrix(0.0087890625,0,0,0.0087890625,13.5615234375,0)" xlink:href="#ar"/><use transform="matrix(0.0087890625,0,0,0.0087890625,24.0556640625,0)" xlink:href="#ai"/><use transform="matrix(0.0087890625,0,0,0.0087890625,30.2080078125,0)" xlink:href="#aK"/><use transform="matrix(0.0087890625,0,0,0.0087890625,44.61328125,0)" xlink:href="#af"/><use transform="matrix(0.0087890625,0,0,0.0087890625,55.40625,0)" xlink:href="#az"/><use transform="matrix(0.0087890625,0,0,0.0087890625,62.4638671875,0)" xlink:href="#am"/></g><g id="F"><use transform="matrix(0.0087890625,0,0,0.0087890625,0,0)" xlink:href="#ap"/><use transform="matrix(0.0087890625,0,0,0.0087890625,13.1484375,0)" xlink:href="#af"/><use transform="matrix(0.0087890625,0,0,0.0087890625,23.94140625,0)" xlink:href="#aC"/><use transform="matrix(0.0087890625,0,0,0.0087890625,39.708984375,0)" xlink:href="#av"/><use transform="matrix(0.0087890625,0,0,0.0087890625,50.90625,0)" xlink:href="#al"/><use transform="matrix(0.0087890625,0,0,0.0087890625,61.013671875,0)" xlink:href="#az"/><use transform="matrix(0.0087890625,0,0,0.0087890625,68.0712890625,0)" xlink:href="#ag"/><use transform="matrix(0.0087890625,0,0,0.0087890625,72.4306640625,0)" xlink:href="#aj"/><use transform="matrix(0.0087890625,0,0,0.0087890625,81.931640625,0)" xlink:href="#af"/><use transform="matrix(0.0087890625,0,0,0.0087890625,92.724609375,0)" xlink:href="#ah"/></g><g id="G"><use transform="matrix(0.0087890625,0,0,0.0087890625,0,0)" xlink:href="#ad"/><use transform="matrix(0.0087890625,0,0,0.0087890625,11.49609375,0)" xlink:href="#aq"/><use transform="matrix(0.0087890625,0,0,0.0087890625,15.85546875,0)" xlink:href="#af"/><use transform="matrix(0.0087890625,0,0,0.0087890625,26.6484375,0)" xlink:href="#ai"/><use transform="matrix(0.0087890625,0,0,0.0087890625,32.361328125,0)" xlink:href="#aj"/></g><g id="H"><use transform="matrix(0.009548632812500001,0,0,0.009548632812500001,0,0)" xlink:href="#ay"/><use transform="matrix(0.009548632812500001,0,0,0.009548632812500001,11.515651171875001,0)" xlink:href="#az"/><use transform="matrix(0.009548632812500001,0,0,0.009548632812500001,18.877647070312502,0)" xlink:href="#al"/><use transform="matrix(0.009548632812500001,0,0,0.009548632812500001,29.858574804687503,0)" xlink:href="#aw"/><use transform="matrix(0.009548632812500001,0,0,0.009548632812500001,41.030475195312505,0)" xlink:href="#am"/></g><g id="I"><use transform="matrix(0.009548632812500001,0,0,0.009548632812500001,0,0)" xlink:href="#ay"/><use transform="matrix(0.009548632812500001,0,0,0.009548632812500001,11.401067578125001,0)" xlink:href="#au"/><use transform="matrix(0.009548632812500001,0,0,0.009548632812500001,22.391543945312502,0)" xlink:href="#av"/><use transform="matrix(0.009548632812500001,0,0,0.009548632812500001,34.365529492187505,0)" xlink:href="#ar"/></g><g id="J"><use transform="matrix(0.009548632812500001,0,0,0.009548632812500001,0,0)" xlink:href="#aB"/><use transform="matrix(0.009548632812500001,0,0,0.009548632812500001,11.544297070312501,0)" xlink:href="#ag"/><use transform="matrix(0.009548632812500001,0,0,0.009548632812500001,16.2804189453125,0)" xlink:href="#aq"/><use transform="matrix(0.009548632812500001,0,0,0.009548632812500001,21.302999804687502,0)" xlink:href="#ai"/><use transform="matrix(0.009548632812500001,0,0,0.009548632812500001,27.509611132812502,0)" xlink:href="#ar"/><use transform="matrix(0.009548632812500001,0,0,0.009548632812500001,38.9106787109375,0)" xlink:href="#az"/><use transform="matrix(0.009548632812500001,0,0,0.009548632812500001,46.578230859375005,0)" xlink:href="#ag"/><use transform="matrix(0.009548632812500001,0,0,0.009548632812500001,51.31435273437501,0)" xlink:href="#ah"/><use transform="matrix(0.009548632812500001,0,0,0.009548632812500001,62.868198437500006,0)" xlink:href="#an"/></g><g id="K"><use transform="matrix(0.0087890625,0,0,0.0087890625,0,0)" xlink:href="#aF"/><use transform="matrix(0.0087890625,0,0,0.0087890625,10.177734375,0)" xlink:href="#af"/><use transform="matrix(0.0087890625,0,0,0.0087890625,20.970703125,0)" xlink:href="#aw"/><use transform="matrix(0.0087890625,0,0,0.0087890625,31.4296875,0)" xlink:href="#al"/><use transform="matrix(0.0087890625,0,0,0.0087890625,41.537109375,0)" xlink:href="#ai"/><use transform="matrix(0.0087890625,0,0,0.0087890625,47.42578125,0)" xlink:href="#ag"/><use transform="matrix(0.0087890625,0,0,0.0087890625,51.78515625,0)" xlink:href="#af"/><use transform="matrix(0.0087890625,0,0,0.0087890625,62.578125,0)" xlink:href="#ah"/><use transform="matrix(0.0087890625,0,0,0.0087890625,73.212890625,0)" xlink:href="#aj"/></g></defs></g></svg>